<svg width="566" height="645" viewBox="0 0 566 645" fill="none" xmlns="http://www.w3.org/2000/svg">
<ellipse opacity="0.08" rx="230.899" ry="302.156" transform="matrix(0.977754 0.209753 -0.180813 0.983518 285.604 346.145)" fill="url(#paint0_radial)"/>
<path d="M239.855 504.869C238.164 504.869 236.285 504.493 234.781 503.552L2.88111 369.607C1.3777 368.855 0.625999 367.538 0.625999 366.409C0.625999 365.469 1.18978 364.528 2.31733 363.964L140.819 284.01C143.074 282.694 147.208 282.882 149.839 284.387L381.739 418.52C383.243 419.272 383.994 420.589 383.994 421.718C383.994 422.659 383.431 423.599 382.303 424.164L243.802 503.929C242.674 504.681 241.359 504.869 239.855 504.869ZM3.25696 368.855L235.157 502.988C237.6 504.305 241.171 504.493 243.426 503.364L381.927 423.411C382.679 422.847 383.243 422.282 383.243 421.53C383.243 420.589 382.491 419.837 381.363 419.084L149.275 284.951C146.832 283.634 143.262 283.446 141.006 284.575L2.50526 364.528C1.75355 365.092 1.18978 365.657 1.18978 366.409C1.3777 367.35 1.94148 368.102 3.25696 368.855Z" fill="#FF6400"/>
<path d="M307.133 254.663L263.158 229.454C258.272 226.632 255.077 221.365 255.077 215.533V142.728H255.829V215.721C255.829 221.176 258.836 226.256 263.534 228.889L307.509 254.098L307.133 254.663Z" fill="#FF6400"/>
<path opacity="0.4" d="M288.246 131.293C300.829 124.02 300.807 100.4 288.197 78.5358C275.586 56.6716 255.163 44.843 242.58 52.1159C229.996 59.3888 230.018 83.0091 242.628 104.873C255.239 126.738 275.662 138.566 288.246 131.293Z" fill="#FF6400"/>
<path d="M279.696 133.886C275.185 133.886 270.299 132.381 265.037 129.371C247.185 119.024 232.526 93.8157 232.526 72.9339C232.526 62.7751 235.909 55.2501 242.111 51.6757C248.312 48.1014 256.581 48.8539 265.413 53.9332C283.266 64.2801 297.924 89.4889 297.924 110.371C297.924 120.529 294.542 128.054 288.34 131.629C285.897 133.134 282.89 133.886 279.696 133.886ZM250.943 50.3589C247.936 50.3589 245.117 51.1114 242.674 52.4282C236.661 55.8145 233.466 63.1514 233.466 73.122C233.466 93.6276 247.936 118.648 265.601 128.807C274.058 133.698 282.139 134.451 287.964 131.064C293.978 127.678 297.173 120.341 297.173 110.371C297.173 89.8651 282.702 64.8445 265.037 54.6857C260.151 51.8639 255.265 50.3589 250.943 50.3589Z" fill="#FF6400"/>
<path d="M261.655 144.045C257.145 144.045 252.259 142.54 246.997 139.53C229.144 129.183 214.485 103.974 214.485 83.0926C214.485 72.9338 217.868 65.4088 224.07 61.8344C230.271 58.2601 238.54 59.0126 247.372 64.0919C265.225 74.4388 279.884 99.6475 279.884 120.529C279.884 130.688 276.501 138.213 270.299 141.788C267.856 143.293 264.85 144.045 261.655 144.045ZM232.902 60.5176C229.895 60.5176 227.076 61.2701 224.633 62.5869C218.62 65.9732 215.425 73.3101 215.425 83.0926C215.425 103.598 229.895 128.619 247.56 138.778C256.017 143.669 264.098 144.421 269.924 141.035C275.937 137.649 279.132 130.312 279.132 120.341C279.132 99.8357 264.662 74.8151 246.997 64.6563C242.111 62.0226 237.224 60.5176 232.902 60.5176Z" fill="#FF6400"/>
<path d="M189 244L201 252C206.167 253.5 217 250.9 219 228.5C219 213.3 219 178.167 219 162.5" stroke="#9A9A9A"/>
<path d="M207.72 223.81V214.404L218.808 158.531L207.908 151.759L185.921 163.987V236.039C185.921 240.93 186.869 243.871 189.5 245L200.203 251.465L201.331 246.762L203.022 238.296C205.841 233.969 207.72 228.702 207.72 223.81Z" fill="#9A9A9A"/>
<path d="M207.72 251.089C201.707 254.475 196.82 250.712 196.82 242.811V170.759L218.808 158.531V230.583C218.62 238.484 213.734 247.702 207.72 251.089Z" fill="url(#paint1_linear)"/>
<path d="M192.122 201.987L191.746 201.799C190.995 201.423 190.431 201.423 190.055 201.799L187.612 203.304L189.303 203.681C189.303 203.869 189.303 203.869 189.303 204.057V217.978C189.303 219.859 190.431 222.117 191.934 222.869L191.371 224.751L193.814 223.246C194.377 223.057 194.753 222.117 194.753 220.988V207.067C194.753 204.997 193.626 202.74 192.122 201.987Z" fill="url(#paint2_linear)"/>
<path d="M192.122 201.987L191.746 201.799C190.995 201.423 190.431 201.423 190.055 201.799L187.612 203.304L189.303 203.681C189.303 203.869 189.303 203.869 189.303 204.057V217.978C189.303 219.859 190.431 222.117 191.934 222.869L191.371 224.751L193.814 223.246C194.377 223.057 194.753 222.117 194.753 220.988V207.067C194.753 204.997 193.626 202.74 192.122 201.987Z" fill="#1E1E20"/>
<path d="M189.491 224.374L189.115 224.186C187.612 223.434 186.485 221.176 186.485 219.295V205.374C186.485 203.493 187.612 202.552 189.115 203.304L189.491 203.493C190.995 204.245 192.122 206.503 192.122 208.384V222.305C192.122 224.374 190.995 225.127 189.491 224.374Z" fill="white"/>
<path d="M207.859 251.743C214.006 248.328 219 239.031 219 231.062V170.348V162L208.243 164.277L197.87 169.969L195.565 167.312L185.96 170.917L185 190.08V190.46C185 196.341 189.418 201.274 195.181 202.223L196.333 202.413V243.395C196.718 251.364 201.712 255.158 207.859 251.743Z" fill="#1E1E20"/>
<path d="M257.145 128.807C257.708 110.747 245.493 88.3601 230.083 78.9538C221.815 73.8745 214.298 73.4982 209.036 77.0726L158.484 104.351L195.881 175.274L247.936 147.055C248.124 146.867 248.312 146.867 248.5 146.679L248.688 146.491C253.762 143.669 256.957 137.649 257.145 128.807Z" fill="url(#paint3_radial)"/>
<path d="M257.145 128.807C257.52 118.084 253.386 105.856 246.621 95.6968C239.104 100.024 223.882 108.489 195.317 124.856C188.176 128.995 181.411 132.569 175.021 135.579L196.069 175.274L248.124 147.055C248.312 146.867 248.5 146.867 248.688 146.679L248.876 146.491C253.762 143.669 256.957 137.649 257.145 128.807Z" fill="#9A9A9A"/>
<path d="M205.089 157.026C204.525 175.086 191.746 182.046 176.337 172.64C160.927 163.234 148.899 140.847 149.275 122.787C149.839 104.727 162.618 97.7664 178.028 107.173C193.626 116.579 205.653 138.966 205.089 157.026Z" fill="url(#paint4_radial)"/>
<path d="M205.5 169.5C192.106 177.456 159.255 202.094 137 235" stroke="#9A9A9A"/>
<path d="M135 239C136 237.084 138 231.885 138 226.423C138 220.961 136 232.532 135 239Z" stroke="#9A9A9A" stroke-width="2"/>
<path d="M205.653 158.154C206.217 139.342 193.626 116.203 177.652 106.232C170.323 101.717 163.558 100.776 158.484 102.846H158.296C158.296 102.846 158.296 102.846 158.108 102.846C157.92 103.034 157.732 103.034 157.356 103.222C126.16 117.519 98.1594 116.014 63.957 113.757L54.1848 113.193L129.543 250.9L134.053 242.811C150.403 213.087 167.692 195.591 196.257 177.155C201.894 174.145 205.277 167.561 205.653 158.154Z" fill="url(#paint5_linear)"/>
<path d="M134.053 242.811C150.403 213.087 167.692 195.591 196.257 177.155C201.707 174.333 205.277 167.749 205.465 158.154C205.841 147.431 201.707 135.203 195.317 124.856C195.317 124.856 195.317 124.856 195.129 124.856C148.148 151.758 119.771 156.085 119.771 156.085L106.616 197.849L110.563 216.285L129.543 250.9L134.053 242.811Z" fill="#1E1E20"/>
<path d="M139.691 220.612C140.631 184.492 116.576 139.906 85.9443 121.094C70.5344 111.688 56.6279 110.371 46.104 116.015L36.7077 121.282L39.9025 120.718C33.1372 127.49 29.0028 138.213 28.6269 152.323C27.6873 188.443 51.7418 233.028 82.3737 251.841C94.4009 259.178 105.676 261.623 115.073 259.554L113.569 261.623L122.214 256.92C122.214 256.92 122.214 256.92 122.402 256.92L122.778 256.732C132.738 250.712 139.127 238.296 139.691 220.612Z" fill="#C0BFF6"/>
<path d="M139.691 220.612C140.631 184.492 116.576 139.906 85.9443 121.094C70.5344 111.688 56.6279 110.371 46.104 116.015L36.7077 121.282L39.9025 120.718C33.1372 127.49 29.0028 138.213 28.6269 152.323C27.6873 188.443 51.7418 233.028 82.3737 251.841C94.4009 259.178 105.676 261.623 115.073 259.554L113.569 261.623L122.214 256.92C122.214 256.92 122.214 256.92 122.402 256.92L122.778 256.732C132.738 250.712 139.127 238.296 139.691 220.612Z" fill="#9A9A9A"/>
<path d="M132.926 224.187C133.865 188.067 109.811 143.481 79.1789 124.668C64.1449 115.45 50.2384 113.945 39.9025 119.401L38.3991 120.153C37.8353 120.53 37.4594 120.718 36.8957 121.094L39.7145 120.53C32.9492 127.302 28.8149 138.025 28.439 152.135C27.4994 188.255 51.5539 232.84 82.1857 251.653C94.213 258.99 105.489 261.435 114.885 259.366L113.569 261.247C125.033 256.168 132.362 243.375 132.926 224.187Z" fill="white"/>
<path d="M131.046 225.315C130.107 261.435 104.361 275.356 73.7291 256.355C43.0972 237.543 18.8548 192.957 19.9824 156.837C20.7341 120.717 46.4799 106.796 77.2997 125.797C107.932 144.609 131.986 189.195 131.046 225.315Z" fill="url(#paint6_linear)"/>
<path d="M124.281 221.176C123.341 252.781 100.79 265.01 73.917 248.454C47.0436 231.899 25.8081 192.769 26.5598 160.976C27.3115 129.183 50.0505 117.143 76.9238 133.698C103.985 150.253 125.033 189.383 124.281 221.176Z" fill="url(#paint7_radial)"/>
<path opacity="0.3" d="M82.3737 244.316C78.2393 241.87 74.4808 238.86 70.7223 235.474C63.0173 228.325 62.4536 216.285 69.4068 208.384C77.8635 199.166 91.2062 186.75 111.878 173.393C103.233 157.026 91.0183 142.352 76.9238 133.698C65.0845 126.361 53.9969 124.668 45.3523 127.678C44.9765 127.866 44.7885 127.866 44.4127 128.055H44.2248C43.8489 128.243 43.661 128.243 43.2851 128.431H43.0972C42.7214 128.619 42.5334 128.807 42.1576 128.807C41.4059 129.183 40.8421 129.56 40.2783 129.936C39.9025 130.124 39.7146 130.312 39.5266 130.5C39.5266 130.5 39.3387 130.5 39.3387 130.688C39.1508 130.876 38.7749 131.065 38.587 131.253L38.3991 131.441C38.2111 131.629 37.8353 131.817 37.6474 132.005C37.6474 132.005 37.6474 132.005 37.4594 132.193C36.8957 132.758 36.3319 133.322 35.7681 133.886C35.5802 134.075 35.3923 134.451 35.0164 134.639L34.8285 134.827C34.6406 135.015 34.4526 135.203 34.2647 135.58L34.0768 135.768C33.8889 135.956 33.7009 136.332 33.513 136.52L33.3251 136.708C33.1372 137.085 32.9492 137.273 32.7613 137.649C32.5734 138.025 32.3855 138.401 32.1975 138.778C32.1975 138.778 32.1975 138.778 32.1975 138.966C32.0096 139.342 31.8217 139.53 31.6337 139.906C31.6337 140.095 31.4458 140.095 31.4458 140.283C31.2579 140.471 31.2579 140.847 31.07 141.035C31.07 141.223 30.882 141.223 30.882 141.411C30.6941 141.6 30.6941 141.976 30.5062 142.164C30.5062 142.352 30.3183 142.352 30.3183 142.54C30.1303 142.916 30.1303 143.105 29.9424 143.481V143.669C29.7545 144.045 29.5666 144.421 29.5666 144.986V145.174C29.3786 145.55 29.3786 145.926 29.1907 146.303C29.1907 146.491 29.1907 146.491 29.0028 146.679C29.0028 147.055 28.8149 147.243 28.8149 147.62C28.8149 147.808 28.8149 147.996 28.6269 148.184C28.6269 148.56 28.439 148.748 28.439 149.125C28.439 149.313 28.439 149.501 28.2511 149.689C28.2511 150.065 28.0632 150.441 28.0632 150.63C28.0632 150.818 28.0632 150.818 28.0632 151.006C27.8752 151.57 27.8752 151.946 27.8752 152.511V152.699C27.8752 153.075 27.6873 153.64 27.6873 154.016C27.6873 154.204 27.6873 154.392 27.6873 154.58C27.6873 154.956 27.6873 155.333 27.4994 155.521C27.4994 155.709 27.4994 155.897 27.4994 156.085C27.4994 156.461 27.4994 156.838 27.3115 157.026C27.3115 157.214 27.3115 157.402 27.3115 157.59C27.3115 157.966 27.3115 158.343 27.3115 158.719C27.3115 158.907 27.3115 159.095 27.3115 159.283C27.3115 159.848 27.3115 160.412 27.3115 160.976C27.3115 161.917 27.3115 162.858 27.3115 163.61C27.3115 163.986 27.3115 164.175 27.3115 164.551C27.3115 165.115 27.3115 165.68 27.3115 166.432C27.3115 166.808 27.3115 166.996 27.3115 167.373C27.3115 168.125 27.4994 168.69 27.4994 169.442C27.4994 169.63 27.4994 169.818 27.4994 170.195C27.4994 171.135 27.6873 171.888 27.8752 172.828C27.8752 173.205 28.0632 173.581 28.0632 173.957C28.0632 174.521 28.2511 175.086 28.2511 175.65C28.2511 176.026 28.439 176.591 28.439 176.967C28.439 177.531 28.6269 177.908 28.6269 178.472C28.6269 178.848 28.8149 179.413 28.8149 179.789C29.0028 180.541 29.1907 181.294 29.3786 181.858C29.5666 182.423 29.7545 183.175 29.9424 183.74C29.9424 184.116 30.1303 184.492 30.1303 184.868C30.3183 185.433 30.5062 185.997 30.6941 186.561C30.6941 186.938 30.882 187.126 30.882 187.502C31.4458 189.571 32.1975 191.829 32.9492 193.898C32.9492 194.086 32.9492 194.086 33.1372 194.275C33.3251 195.027 33.7009 195.591 33.8889 196.344C33.8889 196.532 34.0768 196.72 34.0768 196.908C42.3455 217.978 57.1916 237.731 74.2929 248.455C89.3269 257.673 102.858 258.049 112.254 250.9C103.421 252.97 93.2734 250.9 82.3737 244.316Z" fill="#0F054C"/>
<path d="M119.771 191.829L81.2461 203.869L68.2793 179.036L100.602 155.521C109.059 166.244 115.449 178.284 119.583 191.265L119.771 191.829Z" fill="url(#paint8_linear)"/>
<path d="M85.1926 197.097C85.0047 203.493 80.4944 205.938 75.0446 202.552C69.5947 199.166 65.4604 191.453 65.6483 185.057C65.8362 178.66 70.3464 176.215 75.7963 179.601C81.0582 182.987 85.3805 190.7 85.1926 197.097Z" fill="url(#paint9_radial)"/>
<g style="mix-blend-mode:multiply">
<path d="M108.875 252.945C128.59 242.262 129.594 205.901 111.117 171.729C92.6399 137.557 61.6796 118.515 41.9649 129.198C22.2502 139.88 21.2468 176.242 39.7236 210.414C58.2004 244.585 89.1608 263.627 108.875 252.945Z" fill="#FF6400"/>
</g>
<path d="M435.11 398.202C415.378 398.202 395.834 393.875 380.8 385.222C366.141 376.756 358.061 365.468 358.061 353.428C358.061 341.388 366.141 330.101 380.8 321.635C410.868 304.14 459.728 304.14 489.797 321.447C504.455 329.913 512.536 341.2 512.536 353.24C512.536 365.28 504.455 376.568 489.797 385.034C474.763 393.875 454.842 398.202 435.11 398.202ZM435.298 309.407C415.566 309.407 395.834 313.734 380.988 322.388C366.705 330.665 358.624 341.765 358.812 353.428C358.812 365.092 366.705 376.192 381.176 384.469C411.056 401.589 459.728 401.589 489.421 384.281C503.703 376.004 511.784 364.904 511.596 353.24C511.596 341.577 503.703 330.477 489.233 322.2C474.387 313.734 454.842 309.407 435.298 309.407Z" fill="#FF6400"/>
<path d="M339.08 264.821C342.651 262.752 345.47 264.445 345.47 268.584C345.47 272.723 342.651 277.614 339.08 279.683C335.51 281.753 332.691 280.059 332.691 275.921C332.691 271.97 335.51 266.891 339.08 264.821Z" fill="#6B5F5F"/>
<path d="M339.456 265.009C335.885 267.079 333.067 271.97 333.067 276.109C333.067 277.99 333.63 279.495 334.758 280.059C333.442 279.495 332.691 277.99 332.691 275.733C332.691 271.594 335.51 266.702 339.08 264.633C340.959 263.504 342.651 263.504 343.778 264.257C342.651 263.881 341.147 264.069 339.456 265.009Z" fill="white"/>
<path d="M323.858 255.979C327.429 253.91 330.248 255.603 330.248 259.742C330.248 263.881 327.429 268.772 323.858 270.841C320.288 272.911 317.469 271.217 317.469 267.079C317.469 263.128 320.288 258.049 323.858 255.979Z" fill="#6B5F5F"/>
<path d="M308.26 247.138C311.831 245.068 314.65 246.761 314.65 250.9C314.65 255.039 311.831 259.93 308.26 262C304.69 264.069 301.871 262.376 301.871 258.237C301.871 254.098 304.69 249.207 308.26 247.138Z" fill="#6B5F5F"/>
<path d="M334.57 280.059L342.463 284.574C341.335 283.822 340.584 282.505 340.584 280.436C340.584 276.297 343.402 271.406 346.973 269.336C348.664 268.396 350.168 268.208 351.483 268.772L385.122 288.149L376.102 303.951L276.877 246.949C272.554 244.504 271.051 238.86 273.494 234.533C275.937 230.206 281.575 228.701 285.897 231.147L312.771 246.573C311.643 245.821 309.952 245.821 308.072 246.949C304.502 249.019 301.683 253.91 301.683 258.049C301.683 260.118 302.435 261.623 303.562 262.188L311.455 266.703C310.328 265.95 309.576 264.633 309.576 262.564C309.576 258.425 312.395 253.534 315.965 251.464C317.657 250.524 319.16 250.336 320.476 250.9L328.368 255.415C327.241 254.663 325.55 254.663 323.67 255.791C320.1 257.861 317.281 262.752 317.281 266.891C317.281 268.96 318.033 270.465 319.16 271.029L327.053 275.544C325.925 274.792 325.174 273.475 325.174 271.406C325.174 267.267 327.993 262.376 331.563 260.306C333.254 259.366 334.758 259.178 336.073 259.742L343.59 264.069C342.463 263.316 340.772 263.316 338.892 264.445C335.322 266.514 332.503 271.406 332.503 275.544C332.691 277.99 333.442 279.495 334.57 280.059Z" fill="#B4B5B5"/>
<path d="M324.234 256.168C320.663 258.237 317.845 263.128 317.845 267.267C317.845 269.148 318.408 270.653 319.536 271.218C318.22 270.653 317.469 269.148 317.469 266.891C317.469 262.752 320.288 257.861 323.858 255.792C325.737 254.663 327.429 254.663 328.556 255.415C327.429 255.227 325.925 255.227 324.234 256.168Z" fill="white"/>
<path d="M308.636 247.326C305.066 249.395 302.247 254.286 302.247 258.425C302.247 260.306 302.811 261.812 303.938 262.376C302.623 261.812 301.871 260.307 301.871 258.049C301.871 253.91 304.69 249.019 308.26 246.95C310.14 245.821 311.831 245.821 312.958 246.573C311.831 246.197 310.328 246.385 308.636 247.326Z" fill="white"/>
<path opacity="0.48" d="M346.973 269.336C343.402 271.406 340.584 276.297 340.584 280.436C340.584 282.505 341.335 284.01 342.463 284.574L334.57 280.059C333.442 279.307 332.691 277.99 332.691 275.921C332.691 271.782 335.51 266.891 339.08 264.821C340.959 263.693 342.463 263.693 343.778 264.445L351.483 268.96C350.356 268.208 348.852 268.396 346.973 269.336Z" fill="#FF6400"/>
<path opacity="0.48" d="M331.751 260.683C328.18 262.752 325.362 267.643 325.362 271.782C325.362 273.851 326.113 275.356 327.241 275.921L319.348 271.406C318.22 270.653 317.469 269.336 317.469 267.267C317.469 263.128 320.288 258.237 323.858 256.168C325.737 255.039 327.241 255.039 328.556 255.791L336.261 260.306C334.946 259.554 333.442 259.554 331.751 260.683Z" fill="#FF6400"/>
<path opacity="0.48" d="M316.153 251.653C312.583 253.722 309.764 258.613 309.764 262.752C309.764 264.822 310.515 266.326 311.643 266.891L303.75 262.376C302.623 261.623 301.871 260.307 301.871 258.237C301.871 254.098 304.69 249.207 308.26 247.138C310.14 246.009 311.643 246.009 312.958 246.762L320.663 251.277C319.536 250.524 317.845 250.712 316.153 251.653Z" fill="#FF6400"/>
<path d="M376.477 331.794C376.477 332.358 376.477 332.734 376.477 333.299L396.022 349.666L427.781 361.517L450.144 356.438L471.568 350.23L493.367 333.487L493.931 333.111C493.931 331.794 493.931 330.477 493.743 329.16C497.502 324.081 501.448 319.001 505.207 313.734C506.898 315.991 508.401 318.249 509.529 320.506L512.16 318.437V331.606C512.16 331.794 512.16 331.982 512.16 331.982V332.546C511.784 343.646 504.455 354.745 489.797 363.211C459.728 380.706 411.244 380.706 381.176 363.399C366.329 354.745 358.812 343.646 358.624 332.358C358.624 332.17 358.624 332.17 358.624 331.982V318.061L361.443 320.318C362.007 319.001 362.947 317.684 363.698 316.179C366.893 322.011 370.276 329.16 376.477 331.794Z" fill="url(#paint10_linear)"/>
<path d="M488.293 299.813C488.669 300.001 489.045 300.189 489.609 300.565C496.374 304.516 501.636 309.031 505.394 313.734C501.636 318.814 497.689 323.893 493.931 329.16C492.803 321.447 487.166 313.922 477.018 308.09C454.091 294.922 416.881 294.922 393.954 308.279C382.679 314.863 377.041 323.329 376.853 331.982C370.652 329.537 367.269 322.388 363.698 316.556C366.517 312.417 370.464 308.279 375.538 304.704L372.907 305.269C372.907 305.269 390.948 289.654 391.699 289.466C392.451 289.278 428.533 279.684 428.533 279.684L469.313 283.258L488.293 299.813Z" fill="#1E1E20"/>
<path opacity="0.5" d="M475.702 298.684C498.629 311.853 498.629 333.299 475.702 346.656C452.775 360.013 415.566 360.013 392.639 346.844C369.712 333.675 369.712 312.229 392.639 298.872C415.566 285.515 452.587 285.515 475.702 298.684Z" fill="url(#paint11_linear)"/>
<path d="M489.421 286.644C459.353 269.336 410.68 269.525 380.8 286.832C350.732 304.328 350.919 332.358 380.988 349.666C411.056 366.973 459.728 366.785 489.609 349.478C519.677 331.982 519.489 303.951 489.421 286.644ZM476.642 293.981C499.569 307.15 499.569 328.596 476.642 341.953C453.715 355.31 416.506 355.31 393.579 342.141C370.652 328.972 370.652 307.526 393.579 294.169C416.506 281 453.715 280.812 476.642 293.981Z" fill="#BCBEFF"/>
<path d="M489.421 286.644C459.353 269.336 410.68 269.525 380.8 286.832C350.732 304.328 350.919 332.358 380.988 349.666C411.056 366.973 459.728 366.785 489.609 349.478C519.677 331.982 519.489 303.951 489.421 286.644ZM476.642 293.981C499.569 307.15 499.569 328.596 476.642 341.953C453.715 355.31 416.506 355.31 393.579 342.141C370.652 328.972 370.652 307.526 393.579 294.169C416.506 281 453.715 280.812 476.642 293.981Z" fill="#B4B5B5"/>
<path d="M380.612 348.537C410.68 365.844 459.353 365.656 489.233 348.348C507.65 337.625 514.791 322.952 510.468 309.03C515.542 323.14 508.589 338.566 489.609 349.477C459.541 366.973 411.056 366.973 380.988 349.665C369.524 343.081 362.383 334.803 359.564 326.15C362.571 334.239 369.524 342.14 380.612 348.537Z" fill="white"/>
<path d="M393.203 293.04C416.13 279.683 453.339 279.683 476.266 292.852C485.098 297.931 490.548 304.328 492.615 310.912C490.36 304.704 485.098 298.872 476.642 293.981C453.715 280.812 416.506 280.812 393.579 294.169C379.484 302.258 374.222 313.546 377.229 324.081C373.471 313.17 378.732 301.506 393.203 293.04Z" fill="white"/>
<defs>
<radialGradient id="paint0_radial" cx="0" cy="0" r="1" gradientUnits="userSpaceOnUse" gradientTransform="translate(0 0) rotate(90) scale(302.156 230.899)">
<stop stop-color="white"/>
<stop offset="1" stop-color="#C4C4C4" stop-opacity="0"/>
</radialGradient>
<linearGradient id="paint1_linear" x1="126.61" y1="203.055" x2="230.454" y2="205.909" gradientUnits="userSpaceOnUse">
<stop stop-color="#BCBEFF"/>
<stop offset="0.2271" stop-color="#AAADF8"/>
<stop offset="0.6802" stop-color="#7C83E5"/>
<stop offset="1" stop-color="#5761D7"/>
</linearGradient>
<linearGradient id="paint2_linear" x1="187.465" y1="212.992" x2="194.805" y2="212.992" gradientUnits="userSpaceOnUse">
<stop stop-color="#BCBEFF"/>
<stop offset="0.2271" stop-color="#AAADF8"/>
<stop offset="0.6802" stop-color="#7C83E5"/>
<stop offset="1" stop-color="#5761D7"/>
</linearGradient>
<radialGradient id="paint3_radial" cx="0" cy="0" r="1" gradientUnits="userSpaceOnUse" gradientTransform="translate(162.129 74.1886) rotate(1.57754) scale(114.354 114.475)">
<stop stop-color="#E2E2E2"/>
<stop offset="0.3601" stop-color="#DFDFDF"/>
<stop offset="0.7062" stop-color="#EFEFEF"/>
<stop offset="1" stop-color="#EFEFEF"/>
</radialGradient>
<radialGradient id="paint4_radial" cx="0" cy="0" r="1" gradientUnits="userSpaceOnUse" gradientTransform="translate(177.262 139.865) rotate(31.6031) scale(32.7613 28.3866)">
<stop stop-color="#F9636B"/>
<stop offset="1" stop-color="#B6246E"/>
</radialGradient>
<linearGradient id="paint5_linear" x1="114.417" y1="95.8342" x2="167.502" y2="209.709" gradientUnits="userSpaceOnUse">
<stop stop-color="#989898"/>
<stop offset="0.3207" stop-color="#EFEFEF"/>
<stop offset="0.5" stop-color="#EFEFEF"/>
<stop offset="0.744" stop-color="#EFEFEF"/>
</linearGradient>
<linearGradient id="paint6_linear" x1="18.9267" y1="189.513" x2="131.943" y2="192.619" gradientUnits="userSpaceOnUse">
<stop stop-color="#E0E3E8"/>
<stop offset="0.3601" stop-color="#9A9A9A"/>
<stop offset="0.7062" stop-color="#9A9A9A"/>
<stop offset="1" stop-color="#9A9A9A"/>
</linearGradient>
<radialGradient id="paint7_radial" cx="0" cy="0" r="1" gradientUnits="userSpaceOnUse" gradientTransform="translate(102.154 232.328) rotate(1.57754) scale(129.096 129.232)">
<stop stop-color="#BCBEFF"/>
<stop offset="0.2271" stop-color="#AAADF8"/>
<stop offset="0.6802" stop-color="#7C83E5"/>
<stop offset="1" stop-color="#5761D7"/>
</radialGradient>
<linearGradient id="paint8_linear" x1="68.3405" y1="179.587" x2="119.774" y2="179.587" gradientUnits="userSpaceOnUse">
<stop stop-color="#E9E9FD"/>
<stop offset="0.3601" stop-color="#D3D2F9"/>
<stop offset="0.7062" stop-color="#C5C4F7"/>
<stop offset="1" stop-color="#C0BFF6"/>
</linearGradient>
<radialGradient id="paint9_radial" cx="0" cy="0" r="1" gradientUnits="userSpaceOnUse" gradientTransform="translate(49.0007 172.006) scale(73.669 73.7471)">
<stop stop-color="#BCBEFF"/>
<stop offset="0.2271" stop-color="#AAADF8"/>
<stop offset="0.6802" stop-color="#7C83E5"/>
<stop offset="1" stop-color="#5761D7"/>
</radialGradient>
<linearGradient id="paint10_linear" x1="375.626" y1="368.588" x2="493.214" y2="300.755" gradientUnits="userSpaceOnUse">
<stop stop-color="#EFEFEF"/>
<stop offset="0.0677083" stop-color="#EFEFEF"/>
<stop offset="0.75" stop-color="#1E1E20"/>
<stop offset="1" stop-color="#1E1E20"/>
</linearGradient>
<linearGradient id="paint11_linear" x1="413.449" y1="358.822" x2="454.912" y2="286.77" gradientUnits="userSpaceOnUse">
<stop stop-color="#FF6400"/>
<stop offset="0.1507" stop-color="#FF6400"/>
<stop offset="0.3285" stop-color="#FF6400"/>
<stop offset="0.5199" stop-color="#FF6400"/>
<stop offset="0.7209" stop-color="#FF6400"/>
<stop offset="0.9274" stop-color="#FF6400"/>
<stop offset="1" stop-color="#FF6400"/>
</linearGradient>
</defs>
</svg>
