<?xml version="1.0" encoding="utf-8"?>
<!-- Generator: Adobe Illustrator 21.1.0, SVG Export Plug-In . SVG Version: 6.00 Build 0)  -->
<svg version="1.1" id="Слой_1" xmlns="http://www.w3.org/2000/svg" xmlns:xlink="http://www.w3.org/1999/xlink" x="0px" y="0px"
	 viewBox="0 0 618 617.9" style="enable-background:new 0 0 618 617.9;" xml:space="preserve">
<style type="text/css">
	.st0{opacity:0.12;fill:url(#SVGID_1_);enable-background:new    ;}
	.st1{fill:#FF6400;}
	.st2{fill:url(#SVGID_2_);}
	.st3{fill:url(#SVGID_3_);}
	.st4{fill:#1E1E20;}
	.st5{opacity:0.51;}
	.st6{opacity:0.51;fill:#1E1E20;enable-background:new    ;}
	.st7{fill:url(#SVGID_4_);}
	.st8{fill:url(#SVGID_5_);}
	.st9{fill:#FFFFFF;}
	.st10{opacity:0.15;}
	.st11{opacity:0.15;fill:url(#SVGID_6_);enable-background:new    ;}
	.st12{opacity:0.15;fill:url(#SVGID_7_);enable-background:new    ;}
	.st13{opacity:0.15;fill:#FFFFFF;enable-background:new    ;}
	.st14{opacity:0.5;}
	.st15{opacity:0.5;fill:#24126A;enable-background:new    ;}
	.st16{opacity:0.78;}
	.st17{opacity:0.4;fill:#FF6400;enable-background:new    ;}
	.st18{opacity:0.5;fill:url(#SVGID_8_);enable-background:new    ;}
	.st19{opacity:0.5;fill:url(#SVGID_9_);enable-background:new    ;}
	.st20{opacity:0.5;fill:#FF6400;enable-background:new    ;}
</style>
<radialGradient id="SVGID_1_" cx="158.1845" cy="365.3469" r="1" gradientTransform="matrix(1.892079e-14 309 309 -1.892079e-14 -112583.1875 -48570.1367)" gradientUnits="userSpaceOnUse">
	<stop  offset="0" style="stop-color:#FFFFFF"/>
	<stop  offset="1" style="stop-color:#C4C4C4;stop-opacity:0"/>
</radialGradient>
<circle class="st0" cx="309" cy="308.9" r="309"/>
<path class="st1" d="M308.2,521.5c-1.6,0-3.5-0.4-4.9-1.3L77.5,389.8c-1.5-0.7-2.2-2-2.2-3.1c0-0.9,0.5-1.8,1.6-2.4l134.9-77.8
	c2.2-1.3,6.2-1.1,8.8,0.4l225.8,130.6c1.5,0.7,2.2,2,2.2,3.1c0,0.9-0.5,1.8-1.6,2.4l-134.8,77.8C311,521.3,309.7,521.5,308.2,521.5z
	 M77.9,389.1l225.8,130.6c2.4,1.3,5.9,1.5,8.1,0.4l134.9-77.8c0.7-0.5,1.3-1.1,1.3-1.8c0-0.9-0.7-1.6-1.8-2.4L220.2,307.4
	c-2.4-1.3-5.9-1.5-8.1-0.4L77.3,384.9c-0.7,0.5-1.3,1.1-1.3,1.8C75.9,387.6,76.6,388.5,77.9,389.1z"/>
<path class="st1" d="M228.8,254.5L186,229.9c-4.8-2.7-7.9-7.9-7.9-13.6v-71.1h0.7v71.1c0,5.3,2.9,10.3,7.5,12.8l42.8,24.5
	L228.8,254.5z"/>
<linearGradient id="SVGID_2_" gradientUnits="userSpaceOnUse" x1="483.2062" y1="204.282" x2="219.6137" y2="204.282" gradientTransform="matrix(1 0 0 -1 0 431.7229)">
	<stop  offset="0" style="stop-color:#EFEFEF"/>
	<stop  offset="0.2938" style="stop-color:#EFEFEF"/>
	<stop  offset="0.6399" style="stop-color:#EFEFEF"/>
	<stop  offset="1" style="stop-color:#EFEFEF"/>
</linearGradient>
<path class="st2" d="M219.7,243.9l28.5-169.6l-2.4-0.9l3.5-2c0.7-0.4,1.6-0.4,2.7,0.2l228.2,131.9c1.8,1.1,3.3,3.8,2.9,5.9
	l-28.7,170.9c-0.2,0.9-0.5,1.5-1.3,1.6l-3.3,2l-0.5-3.1h0.2L222.8,249.5C220.8,248.6,219.3,245.9,219.7,243.9z"/>
<linearGradient id="SVGID_3_" gradientUnits="userSpaceOnUse" x1="483.248" y1="136.582" x2="437.989" y2="136.582" gradientTransform="matrix(1 0 0 -1 0 431.7229)">
	<stop  offset="0" style="stop-color:#EFEFEF"/>
	<stop  offset="0.1779" style="stop-color:#B3B3B3"/>
	<stop  offset="0.3876" style="stop-color:#C2C2C2"/>
	<stop  offset="0.6134" style="stop-color:#8C8C8C"/>
	<stop  offset="0.849" style="stop-color:#EFEFEF"/>
	<stop  offset="1" style="stop-color:#EFEFEF"/>
</linearGradient>
<path class="st3" d="M478.9,208.2l3.8-1.6c0.4,0.9,0.5,2,0.5,2.7l-28.9,170.9c-0.2,0.9-0.5,1.5-1.3,1.6l-3.3,2l-0.5-3.1h0.2
	l-11.5-6.6L478.9,208.2z"/>
<path class="st4" d="M219.1,251.7l228.2,131.8c1.8,1.1,3.3,0.4,3.7-1.5l28.7-170.9c0.4-2-1.1-4.8-2.9-5.9L248.6,73.6
	c-1.8-1.1-3.3-0.4-3.7,1.5l-28.7,170.9C215.8,247.9,217.3,250.6,219.1,251.7z"/>
<g class="st5">
	<path class="st6" d="M247.7,76.9l229.3,132.4L448,380.7L218.9,248.3L247.7,76.9z"/>
</g>
<linearGradient id="SVGID_4_" gradientUnits="userSpaceOnUse" x1="448.019" y1="62.6905" x2="75.6706" y2="62.6905" gradientTransform="matrix(1 0 0 -1 0 431.7229)">
	<stop  offset="0" style="stop-color:#696969"/>
	<stop  offset="0.1779" style="stop-color:#828282"/>
	<stop  offset="0.3876" style="stop-color:#ACACAC"/>
	<stop  offset="0.6134" style="stop-color:#DADADA"/>
	<stop  offset="0.849" style="stop-color:#D5D5D5"/>
	<stop  offset="1" style="stop-color:#EFEFEF"/>
</linearGradient>
<path class="st7" d="M75.7,332.7l12.4,6.6l124.8-72.2c2-1.3,5.7-1.1,8.2,0.4l215.4,124.3c2-1.1,11.5-5.7,11.5-5.7l-4.6,7.3
	c-0.2,0.6-0.5,1.1-1.3,1.5l-131.6,76c-2,1.3-5.7,1.1-8.2-0.4L82.1,343.3c-0.9-0.5-1.6-1.3-1.8-2L75.7,332.7z"/>
<linearGradient id="SVGID_5_" gradientUnits="userSpaceOnUse" x1="322.856" y1="72.854" x2="-49.726" y2="72.854" gradientTransform="matrix(1 0 0 -1 0 431.7229)">
	<stop  offset="0" style="stop-color:#D1D1D1"/>
	<stop  offset="0.2938" style="stop-color:#EFEFEF"/>
	<stop  offset="0.6399" style="stop-color:#EFEFEF"/>
	<stop  offset="1" style="stop-color:#EFEFEF"/>
</linearGradient>
<path class="st8" d="M77.7,334.7l225.8,130.6c2.6,1.5,6.2,1.6,8.4,0.4l134.9-77.8c2.2-1.3,1.8-3.5-0.5-4.8L220.4,252.5
	c-2.6-1.5-6.2-1.6-8.4-0.4L77.1,329.9C74.9,331.2,75.1,333.2,77.7,334.7z"/>
<path class="st9" d="M77.7,333.8l225.8,130.6c2.6,1.5,6.2,1.6,8.4,0.4l134.9-77.8c0.7-0.4,1.3-0.9,1.3-1.6c0.2,0.9-0.2,1.8-1.3,2.6
	l-134.9,77.8c-2.2,1.3-5.9,1.1-8.4-0.4L77.7,334.7c-1.6-0.9-2.2-2.2-2-3.3C75.9,332.3,76.4,333,77.7,333.8z"/>
<g class="st10">
	<g class="st10">
		<g class="st10">
			
				<linearGradient id="SVGID_6_" gradientUnits="userSpaceOnUse" x1="591.103" y1="144.7305" x2="218.755" y2="144.7305" gradientTransform="matrix(1 0 0 -1 0 431.7229)">
				<stop  offset="0" style="stop-color:#5761D7"/>
				<stop  offset="0.1779" style="stop-color:#5C66D9"/>
				<stop  offset="0.3876" style="stop-color:#6A73DF"/>
				<stop  offset="0.6134" style="stop-color:#8289E8"/>
				<stop  offset="0.849" style="stop-color:#A3A7F5"/>
				<stop  offset="1" style="stop-color:#BCBEFF"/>
			</linearGradient>
			<path class="st11" d="M218.8,250.6l12.4,6.6L356,185.1c2-1.3,5.7-1.1,8.2,0.4l215.4,124.3c2-1.1,11.5-5.7,11.5-5.7l-4.6,7.3
				c-0.2,0.5-0.5,1.1-1.3,1.5l-131.6,76c-2,1.3-5.7,1.1-8.2-0.4L225.2,261.3c-0.9-0.5-1.6-1.3-1.8-2L218.8,250.6z"/>
			
				<linearGradient id="SVGID_7_" gradientUnits="userSpaceOnUse" x1="466.001" y1="154.894" x2="93.39" y2="154.894" gradientTransform="matrix(1 0 0 -1 0 431.7229)">
				<stop  offset="0" style="stop-color:#C0BFF6"/>
				<stop  offset="0.2938" style="stop-color:#C5C4F7"/>
				<stop  offset="0.6399" style="stop-color:#D3D2F9"/>
				<stop  offset="1" style="stop-color:#E9E9FD"/>
			</linearGradient>
			<path class="st12" d="M220.8,252.7l225.8,130.6c2.6,1.5,6.2,1.6,8.4,0.4l134.9-77.8c2.2-1.3,1.8-3.5-0.5-4.8l-226-130.6
				c-2.6-1.5-6.2-1.6-8.4-0.4L220,247.9C218,249.2,218.2,251.4,220.8,252.7z"/>
			<path class="st13" d="M589.1,300.8L363.3,170.4c-1.6-0.9-3.7-1.3-5.7-1.1c1.5,0.2,2.7,0.5,3.8,1.1L587.3,301
				c2.6,1.5,2.7,3.7,0.5,4.8l-134.5,77.8c-0.7,0.4-1.6,0.7-2.7,0.7c1.6,0.2,3.3-0.2,4.4-0.7l134.9-77.8
				C591.8,304.5,591.7,302.3,589.1,300.8z"/>
		</g>
		<g class="st14">
			<path class="st15" d="M339,230.3l-7.3-4.2c-0.5-0.4-1.6-0.4-2.2,0l-8.1,4.8c-0.5,0.4-0.7,0.9-0.2,1.3l7.3,4.2
				c0.5,0.4,1.6,0.4,2.2,0l8.1-4.8C339.5,231.2,339.7,230.7,339,230.3z"/>
			<path class="st15" d="M350.3,236.7l-7.3-4.2c-0.5-0.4-1.6-0.4-2.2,0l-8.1,4.8c-0.5,0.4-0.7,0.9-0.2,1.3l7.3,4.2
				c0.5,0.4,1.6,0.4,2.2,0l8.1-4.8C350.7,237.6,350.9,237.1,350.3,236.7z"/>
			<path class="st15" d="M361.5,243.1l-7.3-4.2c-0.5-0.4-1.6-0.4-2.2,0l-8.1,4.8c-0.5,0.4-0.7,0.9-0.2,1.3l7.3,4.2
				c0.5,0.4,1.6,0.4,2.2,0l8.1-4.8C362,244,362,243.5,361.5,243.1z"/>
			<path class="st15" d="M352.9,251.7l-7.3-4.2c-0.5-0.4-1.6-0.4-2.2,0l-6.8,4c-0.5,0.4-0.7,0.9-0.2,1.3l7.3,4.2
				c0.5,0.4,1.6,0.4,2.2,0l6.8-4C353.4,252.7,353.4,252.1,352.9,251.7z"/>
			<path class="st15" d="M364,258.2l-7.3-4.2c-0.5-0.4-1.6-0.4-2.2,0l-6.8,4c-0.5,0.4-0.7,0.9-0.2,1.3l7.3,4.2
				c0.5,0.4,1.6,0.4,2.2,0l6.8-4C364.6,259.1,364.6,258.5,364,258.2z"/>
			<path class="st15" d="M375.2,264.7l-7.3-4.2c-0.5-0.4-1.6-0.4-2.2,0l-6.8,4c-0.5,0.4-0.7,0.9-0.2,1.3l7.3,4.2
				c0.5,0.4,1.6,0.4,2.2,0l6.8-4C375.7,265.7,375.7,265.1,375.2,264.7z"/>
			<path class="st15" d="M386.4,271.2l-7.3-4.2c-0.5-0.4-1.6-0.4-2.2,0l-6.8,4c-0.5,0.4-0.7,0.9-0.2,1.3l7.3,4.2
				c0.5,0.4,1.6,0.4,2.2,0l6.8-4C386.9,272.1,387.1,271.5,386.4,271.2z"/>
			<path class="st15" d="M397.7,277.6l-7.3-4.2c-0.5-0.4-1.6-0.4-2.2,0l-6.8,4c-0.5,0.4-0.7,0.9-0.2,1.3l7.3,4.2
				c0.5,0.4,1.6,0.4,2.2,0l6.8-4C398.1,278.5,398.3,277.9,397.7,277.6z"/>
			<path class="st15" d="M408.9,284.2l-7.3-4.2c-0.5-0.4-1.6-0.4-2.2,0l-6.8,4c-0.5,0.4-0.7,0.9-0.2,1.3l7.3,4.2
				c0.5,0.4,1.6,0.4,2.2,0l6.8-4C409.4,285.1,409.4,284.3,408.9,284.2z"/>
			<path class="st15" d="M420,290.6l-7.3-4.2c-0.5-0.4-1.6-0.4-2.2,0l-6.8,4c-0.5,0.4-0.7,0.9-0.2,1.3l7.3,4.2
				c0.5,0.4,1.6,0.4,2.2,0l6.8-4C420.6,291.5,420.6,290.9,420,290.6z"/>
			<path class="st15" d="M431.2,297l-7.3-4.2c-0.5-0.4-1.6-0.4-2.2,0l-6.8,4c-0.5,0.4-0.7,0.9-0.2,1.3l7.3,4.2
				c0.5,0.4,1.6,0.4,2.2,0l6.8-4C431.7,297.9,431.7,297.3,431.2,297z"/>
			<path class="st15" d="M442.3,303.4l-7.3-4.2c-0.5-0.4-1.6-0.4-2.2,0l-6.8,4c-0.5,0.4-0.7,0.9-0.2,1.3l7.3,4.2
				c0.5,0.4,1.6,0.4,2.2,0l6.8-4C442.9,304.3,442.9,303.7,442.3,303.4z"/>
			<path class="st15" d="M453.5,310l-7.3-4.2c-0.5-0.4-1.6-0.4-2.2,0l-6.8,4c-0.5,0.4-0.7,0.9-0.2,1.3l7.3,4.2
				c0.5,0.4,1.6,0.4,2.2,0l6.8-4C454.1,310.9,454.1,310.3,453.5,310z"/>
			<path class="st15" d="M348.3,261.1l-7.3-4.2c-0.5-0.4-1.6-0.4-2.2,0l-6.8,4c-0.5,0.4-0.7,0.9-0.2,1.3l7.3,4.2
				c0.5,0.4,1.6,0.4,2.2,0l6.8-4C348.8,261.8,348.8,261.3,348.3,261.1z"/>
			<path class="st15" d="M337,254.5l-7.3-4.2c-0.5-0.4-1.6-0.4-2.2,0l-6.8,4c-0.5,0.4-0.7,0.9-0.2,1.3l7.3,4.2
				c0.5,0.4,1.6,0.4,2.2,0l6.8-4C337.5,255.4,337.5,254.9,337,254.5z"/>
			<path class="st15" d="M325.6,247.9l-15.6-9c-0.5-0.4-1.6-0.4-2.2,0l-6.8,4c-0.5,0.4-0.7,0.9-0.2,1.3l15.6,9
				c0.5,0.4,1.6,0.4,2.2,0l6.8-4C326,248.8,326.2,248.3,325.6,247.9z"/>
			<path class="st15" d="M312.3,252.1l-12.6-7.3c-0.5-0.4-1.6-0.4-2.2,0l-6.8,4c-0.5,0.4-0.7,0.9-0.2,1.3l12.6,7.3
				c0.5,0.4,1.6,0.4,2.2,0l6.8-4C312.8,253,313,252.5,312.3,252.1z"/>
			<path class="st15" d="M359.5,267.5l-7.3-4.2c-0.5-0.4-1.6-0.4-2.2,0l-6.8,4c-0.5,0.4-0.7,0.9-0.2,1.3l7.3,4.2
				c0.5,0.4,1.6,0.4,2.2,0l6.8-4C360,268.4,360,267.9,359.5,267.5z"/>
			<path class="st15" d="M370.6,273.9l-7.3-4.2c-0.5-0.4-1.6-0.4-2.2,0l-6.8,4c-0.5,0.4-0.7,0.9-0.2,1.3l7.3,4.2
				c0.5,0.4,1.6,0.4,2.2,0l6.8-4C371.2,274.8,371.2,274.3,370.6,273.9z"/>
			<path class="st15" d="M381.8,280.3l-7.3-4.2c-0.5-0.4-1.6-0.4-2.2,0l-6.8,4c-0.5,0.4-0.7,0.9-0.2,1.3l7.3,4.2
				c0.5,0.4,1.6,0.4,2.2,0l6.8-4C382.3,281.2,382.3,280.7,381.8,280.3z"/>
			<path class="st15" d="M392.9,286.9l-7.3-4.2c-0.5-0.4-1.6-0.4-2.2,0l-6.8,4c-0.5,0.4-0.7,0.9-0.2,1.3l7.3,4.2
				c0.5,0.4,1.6,0.4,2.2,0l6.8-4C393.5,287.8,393.5,287.1,392.9,286.9z"/>
			<path class="st15" d="M404.1,293.3l-7.3-4.2c-0.5-0.4-1.6-0.4-2.2,0l-6.8,4c-0.5,0.4-0.7,0.9-0.2,1.3l7.3,4.2
				c0.5,0.4,1.6,0.4,2.2,0l6.8-4C404.7,294.2,404.7,293.7,404.1,293.3z"/>
			<path class="st15" d="M415.3,299.7l-7.3-4.2c-0.5-0.4-1.6-0.4-2.2,0l-6.8,4c-0.5,0.4-0.7,0.9-0.2,1.3l7.3,4.2
				c0.5,0.4,1.6,0.4,2.2,0l6.8-4C415.8,300.6,415.8,300.1,415.3,299.7z"/>
			<path class="st15" d="M426.4,306.1l-7.3-4.2c-0.5-0.4-1.6-0.4-2.2,0l-6.8,4c-0.5,0.4-0.7,0.9-0.2,1.3l7.3,4.2
				c0.5,0.4,1.6,0.4,2.2,0l6.8-4C427,307,427.2,306.5,426.4,306.1z"/>
			<path class="st15" d="M437.6,312.7l-7.3-4.2c-0.5-0.4-1.6-0.4-2.2,0l-6.8,4c-0.5,0.4-0.7,0.9-0.2,1.3l7.3,4.2
				c0.5,0.4,1.6,0.4,2.2,0l6.8-4C438.1,313.6,438.3,313.1,437.6,312.7z"/>
			<path class="st15" d="M448.9,319.1l-7.3-4.2c-0.5-0.4-1.6-0.4-2.2,0l-6.8,4c-0.5,0.4-0.7,0.9-0.2,1.3l7.3,4.2
				c0.5,0.4,1.6,0.4,2.2,0l6.8-4C449.5,320,449.5,319.5,448.9,319.1z"/>
			<path class="st15" d="M468.7,330.7l-15.7-9.2c-0.5-0.4-1.6-0.4-2.2,0l-6.8,4c-0.5,0.4-0.7,0.9-0.2,1.3l15.7,9.2
				c0.5,0.4,1.6,0.4,2.2,0l6.8-4C469.2,331.6,469.2,331,468.7,330.7z"/>
			<path class="st15" d="M448.2,342.6l-13.4-7.7c-0.5-0.4-1.6-0.4-2.2,0l-6.8,4c-0.5,0.4-0.7,0.9-0.2,1.3l13.4,7.7
				c0.5,0.4,1.6,0.4,2.2,0l6.8-4C448.8,343.5,448.8,342.9,448.2,342.6z"/>
			<path class="st15" d="M357.8,278.5l-7.3-4.2c-0.5-0.4-1.6-0.4-2.2,0l-6.8,4c-0.5,0.4-0.7,0.9-0.2,1.3l7.3,4.2
				c0.5,0.4,1.6,0.4,2.2,0l6.8-4C358.4,279.4,358.4,278.8,357.8,278.5z"/>
			<path class="st15" d="M346.5,271.9l-7.3-4.2c-0.5-0.4-1.6-0.4-2.2,0l-6.8,4c-0.5,0.4-0.7,0.9-0.2,1.3l7.3,4.2
				c0.5,0.4,1.6,0.4,2.2,0l6.8-4C347,272.8,347,272.3,346.5,271.9z"/>
			<path class="st15" d="M334.9,265.3l-7.3-4.2c-0.5-0.4-1.6-0.4-2.2,0l-6.8,4c-0.5,0.4-0.7,0.9-0.2,1.3l7.3,4.2
				c0.5,0.4,1.6,0.4,2.2,0l6.8-4C335.5,266.2,335.5,265.7,334.9,265.3z"/>
			<path class="st15" d="M323.4,258.7l-7.3-4.2c-0.5-0.4-1.6-0.4-2.2,0l-6.8,4c-0.5,0.4-0.7,0.9-0.2,1.3l7.3,4.2
				c0.5,0.4,1.6,0.4,2.2,0l6.8-4C324,259.4,324.1,258.9,323.4,258.7z"/>
			<path class="st15" d="M369,284.9l-7.3-4.2c-0.5-0.4-1.6-0.4-2.2,0l-6.8,4c-0.5,0.4-0.7,0.9-0.2,1.3l7.3,4.2
				c0.5,0.4,1.6,0.4,2.2,0l6.8-4C369.5,285.8,369.7,285.3,369,284.9z"/>
			<path class="st15" d="M380.1,291.5l-7.3-4.2c-0.5-0.4-1.6-0.4-2.2,0l-6.8,4c-0.5,0.4-0.7,0.9-0.2,1.3l7.3,4.2
				c0.5,0.4,1.6,0.4,2.2,0l6.8-4C380.7,292.2,380.9,291.7,380.1,291.5z"/>
			<path class="st15" d="M391.5,297.9l-7.3-4.2c-0.5-0.4-1.6-0.4-2.2,0l-6.8,4c-0.5,0.4-0.7,0.9-0.2,1.3l7.3,4.2
				c0.5,0.4,1.6,0.4,2.2,0l6.8-4C392,298.8,392,298.3,391.5,297.9z"/>
			<path class="st15" d="M402.6,304.3l-7.3-4.2c-0.5-0.4-1.6-0.4-2.2,0l-6.8,4c-0.5,0.4-0.7,0.9-0.2,1.3l7.3,4.2
				c0.5,0.4,1.6,0.4,2.2,0l6.8-4C403.2,305.2,403.2,304.7,402.6,304.3z"/>
			<path class="st15" d="M413.8,310.7l-7.3-4.2c-0.5-0.4-1.6-0.4-2.2,0l-6.8,4c-0.5,0.4-0.7,0.9-0.2,1.3l7.3,4.2
				c0.5,0.4,1.6,0.4,2.2,0l6.8-4C414.4,311.6,414.4,311.1,413.8,310.7z"/>
			<path class="st15" d="M425,317.3l-7.3-4.2c-0.5-0.4-1.6-0.4-2.2,0l-6.8,4c-0.5,0.4-0.7,0.9-0.2,1.3l7.3,4.2
				c0.5,0.4,1.6,0.4,2.2,0l6.8-4C425.5,318.2,425.5,317.5,425,317.3z"/>
			<path class="st15" d="M436.1,323.7l-7.3-4.2c-0.5-0.4-1.6-0.4-2.2,0l-6.8,4c-0.5,0.4-0.7,0.9-0.2,1.3l7.3,4.2
				c0.5,0.4,1.6,0.4,2.2,0l6.8-4C436.7,324.6,436.7,324.1,436.1,323.7z"/>
			<path class="st15" d="M447.3,330.1l-7.3-4.2c-0.5-0.4-1.6-0.4-2.2,0l-6.8,4c-0.5,0.4-0.7,0.9-0.2,1.3l7.3,4.2
				c0.5,0.4,1.6,0.4,2.2,0l6.8-4C447.8,331,447.8,330.5,447.3,330.1z"/>
			<path class="st15" d="M458.4,336.5l-7.3-4.2c-0.5-0.4-1.6-0.4-2.2,0l-6.8,4c-0.5,0.4-0.7,0.9-0.2,1.3l7.3,4.2
				c0.5,0.4,1.6,0.4,2.2,0l6.8-4C459,337.4,459,336.9,458.4,336.5z"/>
			<path class="st15" d="M330.9,274.8l-7.3-4.2c-0.5-0.4-1.6-0.4-2.2,0l-6.8,4c-0.5,0.4-0.7,0.9-0.2,1.3l7.3,4.2
				c0.5,0.4,1.6,0.4,2.2,0l6.8-4C331.5,275.7,331.5,275.2,330.9,274.8z"/>
			<path class="st15" d="M319.8,268.4l-7.3-4.2c-0.5-0.4-1.6-0.4-2.2,0l-6.8,4c-0.5,0.4-0.7,0.9-0.2,1.3l7.3,4.2
				c0.5,0.4,1.6,0.4,2.2,0l6.8-4C320.3,269.3,320.3,268.8,319.8,268.4z"/>
			<path class="st15" d="M308.6,262l-7.3-4.2c-0.5-0.4-1.6-0.4-2.2,0l-6.8,4c-0.5,0.4-0.7,0.9-0.2,1.3l7.3,4.2
				c0.5,0.4,1.6,0.4,2.2,0l6.8-4C309.1,262.9,309.1,262.2,308.6,262z"/>
			<path class="st15" d="M297.4,255.4l-7.3-4.2c-0.5-0.4-1.6-0.4-2.2,0l-6.8,4c-0.5,0.4-0.7,0.9-0.2,1.3l7.3,4.2
				c0.5,0.4,1.6,0.4,2.2,0l6.8-4C298,256.3,298,255.8,297.4,255.4z"/>
			<path class="st15" d="M286.6,261.8l-7.3-4.2c-0.5-0.4-1.6-0.4-2.2,0l-2.2,1.3c-0.5,0.4-0.7,0.9-0.2,1.3l7.3,4.2
				c0.5,0.4,1.6,0.4,2.2,0l2.2-1.3C287.2,262.7,287.4,262.2,286.6,261.8z"/>
			<path class="st15" d="M301.3,270.2L294,266c-0.5-0.4-1.6-0.4-2.2,0l-2.2,1.3c-0.5,0.4-0.7,0.9-0.2,1.3l7.3,4.2
				c0.5,0.4,1.6,0.4,2.2,0l2.2-1.3C301.8,271.2,301.8,270.6,301.3,270.2z"/>
			<path class="st15" d="M312.3,276.6l-7.3-4.2c-0.5-0.4-1.6-0.4-2.2,0l-2.2,1.3c-0.5,0.4-0.7,0.9-0.2,1.3l7.3,4.2
				c0.5,0.4,1.6,0.4,2.2,0l2.2-1.3C312.8,277.6,312.8,276.8,312.3,276.6z"/>
			<path class="st15" d="M323.4,283.1l-7.3-4.2c-0.5-0.4-1.6-0.4-2.2,0l-2.2,1.3c-0.5,0.4-0.7,0.9-0.2,1.3l7.3,4.2
				c0.5,0.4,1.6,0.4,2.2,0l2.2-1.3C324,284,324,283.2,323.4,283.1z"/>
			<path class="st15" d="M334.4,289.5l-7.3-4.2c-0.5-0.4-1.6-0.4-2.2,0l-2.2,1.3c-0.5,0.4-0.7,0.9-0.2,1.3l7.3,4.2
				c0.5,0.4,1.6,0.4,2.2,0l2.2-1.3C334.9,290.2,335.1,289.6,334.4,289.5z"/>
			<path class="st15" d="M396.2,325.2l-7.3-4.2c-0.5-0.4-1.6-0.4-2.2,0l-2.2,1.3c-0.5,0.4-0.7,0.9-0.2,1.3l7.3,4.2
				c0.5,0.4,1.6,0.4,2.2,0l2.2-1.3C396.8,326.1,397,325.5,396.2,325.2z"/>
			<path class="st15" d="M407.4,331.6l-7.3-4.2c-0.5-0.4-1.6-0.4-2.2,0l-2.2,1.3c-0.5,0.4-0.7,0.9-0.2,1.3l7.3,4.2
				c0.5,0.4,1.6,0.4,2.2,0l2.2-1.3C407.9,332.5,407.9,331.8,407.4,331.6z"/>
			<path class="st15" d="M418.4,338l-7.3-4.2c-0.5-0.4-1.6-0.4-2.2,0l-2.2,1.3c-0.5,0.4-0.7,0.9-0.2,1.3l7.3,4.2
				c0.5,0.4,1.6,0.4,2.2,0l2.2-1.3C418.9,338.9,419.1,338.2,418.4,338z"/>
			<path class="st15" d="M429.5,344.4l-7.3-4.2c-0.5-0.4-1.6-0.4-2.2,0l-2.2,1.3c-0.5,0.4-0.7,0.9-0.2,1.3l7.3,4.2
				c0.5,0.4,1.6,0.4,2.2,0l2.2-1.3C430.1,345.3,430.1,344.6,429.5,344.4z"/>
			<path class="st15" d="M342.1,281.2l-7.3-4.2c-0.5-0.4-1.6-0.4-2.2,0l-6.8,4c-0.5,0.4-0.7,0.9-0.2,1.3l7.3,4.2
				c0.5,0.4,1.6,0.4,2.2,0l6.8-4C342.6,282.1,342.6,281.6,342.1,281.2z"/>
			<path class="st15" d="M353.2,287.6l-7.3-4.2c-0.5-0.4-1.6-0.4-2.2,0l-6.8,4c-0.5,0.4-0.7,0.9-0.2,1.3l7.3,4.2
				c0.5,0.4,1.6,0.4,2.2,0l6.8-4C353.8,288.5,353.8,288,353.2,287.6z"/>
			<path class="st15" d="M364.4,294.2l-7.3-4.2c-0.5-0.4-1.6-0.4-2.2,0l-6.8,4c-0.5,0.4-0.7,0.9-0.2,1.3l7.3,4.2
				c0.5,0.4,1.6,0.4,2.2,0l6.8-4C365,295.1,365,294.4,364.4,294.2z"/>
			<path class="st15" d="M375.6,300.6l-7.3-4.2c-0.5-0.4-1.6-0.4-2.2,0l-6.8,4c-0.5,0.4-0.7,0.9-0.2,1.3l7.3,4.2
				c0.5,0.4,1.6,0.4,2.2,0l6.8-4C376.1,301.6,376.1,301,375.6,300.6z"/>
			<path class="st15" d="M386.7,307l-7.3-4.2c-0.5-0.4-1.6-0.4-2.2,0l-6.8,4c-0.5,0.4-0.7,0.9-0.2,1.3l7.3,4.2
				c0.5,0.4,1.6,0.4,2.2,0l6.8-4C387.3,308,387.3,307.4,386.7,307z"/>
			<path class="st15" d="M397.9,313.5l-7.3-4.2c-0.5-0.4-1.6-0.4-2.2,0l-6.8,4c-0.5,0.4-0.7,0.9-0.2,1.3l7.3,4.2
				c0.5,0.4,1.6,0.4,2.2,0l6.8-4C398.4,314.4,398.4,313.8,397.9,313.5z"/>
			<path class="st15" d="M409,320l-7.3-4.2c-0.5-0.4-1.6-0.4-2.2,0l-6.8,4c-0.5,0.4-0.7,0.9-0.2,1.3l7.3,4.2c0.5,0.4,1.6,0.4,2.2,0
				l6.8-4C409.6,321,409.8,320.4,409,320z"/>
			<path class="st15" d="M420.2,326.5l-7.3-4.2c-0.5-0.4-1.6-0.4-2.2,0l-6.8,4c-0.5,0.4-0.7,0.9-0.2,1.3l7.3,4.2
				c0.5,0.4,1.6,0.4,2.2,0l6.8-4C420.8,327.4,420.9,326.8,420.2,326.5z"/>
			<path class="st15" d="M431.6,332.9l-7.3-4.2c-0.5-0.4-1.6-0.4-2.2,0l-6.8,4c-0.5,0.4-0.7,0.9-0.2,1.3l7.3,4.2
				c0.5,0.4,1.6,0.4,2.2,0l6.8-4C431.9,333.8,432.1,333.2,431.6,332.9z"/>
			<path class="st15" d="M341.5,245.1l-21.4-12.3c-0.5-0.4-1.6-0.4-2.2,0l-6.8,4c-0.5,0.4-0.7,0.9-0.2,1.3l21.4,12.3
				c0.5,0.4,1.6,0.4,2.2,0l6.8-4C342.1,246.1,342.1,245.5,341.5,245.1z"/>
			<path class="st15" d="M478.8,324.6l-21.4-12.3c-0.5-0.4-1.6-0.4-2.2,0l-6.8,4c-0.5,0.4-0.7,0.9-0.2,1.3l21.4,12.3
				c0.5,0.4,1.6,0.4,2.2,0l6.8-4C479.3,325.5,479.5,324.8,478.8,324.6z"/>
			<path class="st15" d="M458.1,299l-7.3-4.2c-0.5-0.4-1.6-0.4-2.2,0l-8.1,4.8c-0.5,0.4-0.7,0.9-0.2,1.3l7.3,4.2
				c0.5,0.4,1.6,0.4,2.2,0l8-4.8C458.6,299.9,458.6,299.4,458.1,299z"/>
			<path class="st15" d="M376.8,252.1l-11.5-6.8c-0.5-0.4-1.6-0.4-2.2,0l-8.1,4.8c-0.5,0.4-0.7,0.9-0.2,1.3l11.5,6.8
				c0.5,0.4,1.6,0.4,2.2,0l8.1-4.8C377.4,253,377.6,252.5,376.8,252.1z"/>
			<path class="st15" d="M447.3,292.8l-11.5-6.8c-0.5-0.4-1.6-0.4-2.2,0l-8.1,4.8c-0.5,0.4-0.7,0.9-0.2,1.3l11.5,6.8
				c0.5,0.4,1.6,0.4,2.2,0l8.1-4.8C447.8,293.7,447.8,293.1,447.3,292.8z"/>
			<path class="st15" d="M393.1,261.4l-11.5-6.8c-0.5-0.4-1.6-0.4-2.2,0l-8,4.8c-0.5,0.4-0.7,0.9-0.2,1.3l11.5,6.8
				c0.5,0.4,1.6,0.4,2.2,0l8.1-4.8C393.7,262.4,393.7,261.8,393.1,261.4z"/>
			<path class="st15" d="M371.2,260.9l50.3,29.1c0.5,0.4,1.6,0.4,2.2,0l8.2-4.8c0.5-0.4,0.5-0.9,0-1.3l-50.3-29.1L371.2,260.9z"/>
			<path class="st15" d="M478.8,316.9l8.1,4.6c0.5,0.4,1.3,0.2,1.8,0l3.3-2c0.5-0.4,0.5-0.7,0-1.1l-8.1-4.6c-0.5-0.4-1.3-0.2-1.8,0
				l-3.3,2C478.2,316.2,478.2,316.8,478.8,316.9z"/>
			<path class="st15" d="M467.4,310.5l8.1,4.6c0.5,0.4,1.3,0.2,1.8,0l3.3-2c0.5-0.4,0.5-0.7,0-1.1l-8.1-4.6c-0.5-0.4-1.3-0.2-1.8,0
				l-3.3,2C467,309.8,466.9,310.2,467.4,310.5z"/>
			<path class="st15" d="M456.3,303.9l8.1,4.6c0.5,0.4,1.3,0.2,1.8,0l3.3-2c0.5-0.4,0.5-0.7,0-1.1l-8.1-4.6c-0.5-0.4-1.3-0.2-1.8,0
				l-3.3,2C455.9,303.2,455.7,303.7,456.3,303.9z"/>
			<path class="st15" d="M461.6,313.8l8.1,4.6c0.5,0.4,1.3,0.2,1.8,0l3.3-2c0.5-0.4,0.5-0.7,0-1.1l-8.1-4.6c-0.5-0.4-1.3-0.2-1.8,0
				l-3.3,2C461.2,313.1,461.2,313.6,461.6,313.8z"/>
		</g>
	</g>
</g>
<g class="st16">
	<path class="st4" d="M181.4,320.2l-7.1-4.2c-0.5-0.4-0.5-0.9,0.2-1.3l8.4-4.9c0.7-0.4,1.6-0.4,2.2-0.2l7.1,4.2
		c0.5,0.4,0.5,0.9-0.2,1.3l-8.4,4.9C183.1,320.6,182,320.6,181.4,320.2z"/>
	<path class="st4" d="M192.6,326.6l-7.1-4.2c-0.5-0.4-0.5-0.9,0.2-1.3l8.4-4.9c0.7-0.4,1.6-0.4,2.2-0.2l7.1,4.2
		c0.5,0.4,0.5,0.9-0.2,1.3l-8.4,4.9C194.1,327,193.1,327,192.6,326.6z"/>
	<path class="st4" d="M203.6,333l-7.1-4.2c-0.5-0.4-0.5-0.9,0.2-1.3l8.4-4.9c0.7-0.4,1.6-0.4,2.2-0.2l7.1,4.2
		c0.5,0.4,0.5,0.9-0.2,1.3l-8.4,4.9C205.2,333.4,204.1,333.4,203.6,333z"/>
	<path class="st4" d="M218.9,327.7l-7.1-4.2c-0.5-0.4-0.5-0.9,0.2-1.3l7.1-4c0.7-0.4,1.6-0.4,2.2-0.2l7.1,4.2
		c0.5,0.4,0.5,0.9-0.2,1.3l-7.1,4C220.6,328.1,219.5,328.1,218.9,327.7z"/>
	<path class="st4" d="M230.1,334.1l-7.1-4.2c-0.5-0.4-0.5-0.9,0.2-1.3l7.1-4c0.7-0.4,1.6-0.4,2.2-0.2l7.1,4.2
		c0.5,0.4,0.5,0.9-0.2,1.3l-7.1,4C231.6,334.5,230.6,334.5,230.1,334.1z"/>
	<path class="st4" d="M241.1,340.6l-7.1-4.2c-0.5-0.4-0.5-0.9,0.2-1.3l7.1-4c0.7-0.4,1.6-0.4,2.2-0.2l7.1,4.2
		c0.5,0.4,0.5,0.9-0.2,1.3l-7.1,4C242.7,340.9,241.6,340.9,241.1,340.6z"/>
	<path class="st4" d="M252.2,347l-7.1-4.2c-0.5-0.4-0.5-0.9,0.2-1.3l7.1-4c0.7-0.4,1.6-0.4,2.2-0.2l7.1,4.2c0.5,0.4,0.5,0.9-0.2,1.3
		l-7.1,4C253.7,347.3,252.8,347.3,252.2,347z"/>
	<path class="st4" d="M263.2,353.4l-7.1-4.2c-0.5-0.4-0.5-0.9,0.2-1.3l7.1-4c0.7-0.4,1.6-0.4,2.2-0.2l7.1,4.2
		c0.5,0.4,0.5,0.9-0.2,1.3l-7.1,4C264.9,353.7,263.8,353.7,263.2,353.4z"/>
	<path class="st4" d="M274.4,359.8l-7.1-4.2c-0.5-0.4-0.5-0.9,0.2-1.3l7.1-4c0.7-0.4,1.6-0.4,2.2-0.2l7.1,4.2
		c0.5,0.4,0.5,0.9-0.2,1.3l-7.1,4C275.8,360,274.9,360.2,274.4,359.8z"/>
	<path class="st4" d="M285.4,366.2l-7.1-4.2c-0.5-0.4-0.5-0.9,0.2-1.3l7.1-4c0.7-0.4,1.6-0.4,2.2-0.2l7.1,4.2
		c0.5,0.4,0.5,0.9-0.2,1.3l-7.1,4C287,366.4,285.9,366.6,285.4,366.2z"/>
	<path class="st4" d="M296.5,372.6l-7.1-4.2c-0.5-0.4-0.5-0.9,0.2-1.3l7.1-4c0.7-0.4,1.6-0.4,2.2-0.2l7.1,4.2
		c0.5,0.4,0.5,0.9-0.2,1.3l-7.1,4C298,372.8,297.1,373,296.5,372.6z"/>
	<path class="st4" d="M307.5,379l-7.1-4.2c-0.5-0.4-0.5-0.9,0.2-1.3l7.1-4c0.7-0.4,1.6-0.4,2.2-0.2l7.1,4.2c0.5,0.4,0.5,0.9-0.2,1.3
		l-7.1,4C309.1,379.2,308,379.4,307.5,379z"/>
	<path class="st4" d="M318.7,385.4l-7.1-4.2c-0.5-0.4-0.5-0.9,0.2-1.3l7.1-4c0.7-0.4,1.6-0.4,2.2-0.2l7.1,4.2
		c0.5,0.4,0.5,0.9-0.2,1.3l-7.1,4C320.1,385.6,319.2,385.6,318.7,385.4z"/>
	<path class="st4" d="M235.2,324.8l-7.1-4.2c-0.5-0.4-0.5-0.9,0.2-1.3l7.1-4c0.7-0.4,1.6-0.4,2.2-0.2l7.1,4.2
		c0.5,0.4,0.5,0.9-0.2,1.3l-7.1,4C236.9,325,235.8,325,235.2,324.8z"/>
	<path class="st4" d="M224.1,318.2l-7.1-4.2c-0.5-0.4-0.5-0.9,0.2-1.3l7.1-4c0.7-0.4,1.6-0.4,2.2-0.2l7.1,4.2
		c0.5,0.4,0.5,0.9-0.2,1.3l-7.1,4C225.5,318.6,224.6,318.6,224.1,318.2z"/>
	<path class="st4" d="M212.7,311.8l-15.4-9c-0.5-0.4-0.5-0.9,0.2-1.3l7.1-4c0.7-0.4,1.6-0.4,2.2-0.2l15.4,9c0.5,0.4,0.5,0.9-0.2,1.3
		l-7.1,4C214.4,312,213.3,312.2,212.7,311.8z"/>
	<path class="st4" d="M220.6,303.9l-12.4-7.3c-0.5-0.4-0.5-0.9,0.2-1.3l7.1-4c0.7-0.4,1.6-0.4,2.2-0.2l12.4,7.3
		c0.5,0.4,0.5,0.9-0.2,1.3l-7.1,4C222.2,304.1,221.1,304.1,220.6,303.9z"/>
	<path class="st4" d="M246.4,331.2l-7.1-4.2c-0.5-0.4-0.5-0.9,0.2-1.3l7.1-4c0.7-0.4,1.6-0.4,2.2-0.2l7.1,4.2
		c0.5,0.4,0.5,0.9-0.2,1.3l-7.1,4C247.8,331.4,246.9,331.4,246.4,331.2z"/>
	<path class="st4" d="M257.4,337.6l-7.1-4.2c-0.5-0.4-0.5-0.9,0.2-1.3l7.1-4c0.7-0.4,1.6-0.4,2.2-0.2l7.1,4.2
		c0.5,0.4,0.5,0.9-0.2,1.3l-7.1,4C259,337.8,257.9,337.8,257.4,337.6z"/>
	<path class="st4" d="M268.5,343.9l-7.1-4.2c-0.5-0.4-0.5-0.9,0.2-1.3l7.1-4c0.7-0.4,1.6-0.4,2.2-0.2l7.1,4.2
		c0.5,0.4,0.5,0.9-0.2,1.3l-7.1,4C270,344.2,269.1,344.2,268.5,343.9z"/>
	<path class="st4" d="M279.5,350.3l-7.1-4.2c-0.5-0.4-0.5-0.9,0.2-1.3l7.1-4c0.7-0.4,1.6-0.4,2.2-0.2l7.1,4.2
		c0.5,0.4,0.5,0.9-0.2,1.3l-7.1,4C281.1,350.6,280,350.6,279.5,350.3z"/>
	<path class="st4" d="M290.7,356.7l-7.1-4.2c-0.5-0.4-0.5-0.9,0.2-1.3l7.1-4c0.7-0.4,1.6-0.4,2.2-0.2l7.1,4.2
		c0.5,0.4,0.5,0.9-0.2,1.3l-7.1,4C292.1,357,291.2,357,290.7,356.7z"/>
	<path class="st4" d="M301.6,363.1l-7.1-4.2c-0.5-0.4-0.5-0.9,0.2-1.3l7.1-4c0.7-0.4,1.6-0.4,2.2-0.2l7.1,4.2
		c0.5,0.4,0.5,0.9-0.2,1.3l-7.1,4C303.3,363.4,302.2,363.4,301.6,363.1z"/>
	<path class="st4" d="M312.8,369.5l-7.1-4.2c-0.5-0.4-0.5-0.9,0.2-1.3l7.1-4c0.7-0.4,1.6-0.4,2.2-0.2l7.1,4.2
		c0.5,0.4,0.5,0.9-0.2,1.3l-7.1,4C314.3,369.9,313.4,369.9,312.8,369.5z"/>
	<path class="st4" d="M323.8,375.9l-7.1-4.2c-0.5-0.4-0.5-0.9,0.2-1.3l7.1-4c0.7-0.4,1.6-0.4,2.2-0.2l7.1,4.2
		c0.5,0.4,0.5,0.9-0.2,1.3l-7.1,4C325.4,376.3,324.3,376.3,323.8,375.9z"/>
	<path class="st4" d="M334.9,382.3l-7.1-4.2c-0.5-0.4-0.5-0.9,0.2-1.3l7.1-4c0.7-0.4,1.6-0.4,2.2-0.2l7.1,4.2
		c0.5,0.4,0.5,0.9-0.2,1.3l-7.1,4C336.4,382.7,335.5,382.7,334.9,382.3z"/>
	<path class="st4" d="M354.5,393.7l-15.6-9c-0.5-0.4-0.5-0.9,0.2-1.3l7.1-4c0.7-0.4,1.6-0.4,2.2-0.2l15.6,9c0.5,0.4,0.5,0.9-0.2,1.3
		l-7.1,4C356.2,394,355.3,394,354.5,393.7z"/>
	<path class="st4" d="M376.1,381.2l-13.2-7.7c-0.5-0.4-0.5-0.9,0.2-1.3l7.1-4c0.7-0.4,1.6-0.4,2.2-0.2l13.2,7.7
		c0.5,0.4,0.5,0.9-0.2,1.3l-7.1,4C377.8,381.6,376.7,381.6,376.1,381.2z"/>
	<path class="st4" d="M265.8,329.9l-7.1-4.2c-0.5-0.4-0.5-0.9,0.2-1.3l7.1-4c0.7-0.4,1.6-0.4,2.2-0.2l7.1,4.2
		c0.5,0.4,0.5,0.9-0.2,1.3l-7.1,4C267.2,330.1,266.3,330.3,265.8,329.9z"/>
	<path class="st4" d="M254.4,323.3l-7.1-4.2c-0.5-0.4-0.5-0.9,0.2-1.3l7.1-4c0.7-0.4,1.6-0.4,2.2-0.2l7.1,4.2
		c0.5,0.4,0.5,0.9-0.2,1.3l-7.1,4C255.9,323.7,255,323.7,254.4,323.3z"/>
	<path class="st4" d="M243.1,316.8l-7.1-4.2c-0.5-0.4-0.5-0.9,0.2-1.3l7.1-4c0.7-0.4,1.6-0.4,2.2-0.2l7.1,4.2
		c0.5,0.4,0.5,0.9-0.2,1.3l-7.1,4C244.6,317.1,243.6,317.1,243.1,316.8z"/>
	<path class="st4" d="M231.7,310.2l-7.1-4.2c-0.5-0.4-0.5-0.9,0.2-1.3l7.1-4c0.7-0.4,1.6-0.4,2.2-0.2l7.1,4.2
		c0.5,0.4,0.5,0.9-0.2,1.3l-7.1,4C233.2,310.5,232.3,310.5,231.7,310.2z"/>
	<path class="st4" d="M276.8,336.3l-7.1-4.2c-0.5-0.4-0.5-0.9,0.2-1.3l7.1-4c0.7-0.4,1.6-0.4,2.2-0.2l7.1,4.2
		c0.5,0.4,0.5,0.9-0.2,1.3l-7.1,4C278.4,336.5,277.3,336.7,276.8,336.3z"/>
	<path class="st4" d="M287.9,342.8l-7.1-4.2c-0.5-0.4-0.5-0.9,0.2-1.3l7.1-4c0.7-0.4,1.6-0.4,2.2-0.2l7.1,4.2
		c0.5,0.4,0.5,0.9-0.2,1.3l-7.1,4C289.4,342.9,288.5,342.9,287.9,342.8z"/>
	<path class="st4" d="M298.9,349.2l-7.1-4.2c-0.5-0.4-0.5-0.9,0.2-1.3l7.1-4c0.7-0.4,1.6-0.4,2.2-0.2l7.1,4.2
		c0.5,0.4,0.5,0.9-0.2,1.3l-7.1,4C300.5,349.3,299.4,349.3,298.9,349.2z"/>
	<path class="st4" d="M310.1,355.6l-7.1-4.2c-0.5-0.4-0.5-0.9,0.2-1.3l7.1-4c0.7-0.4,1.6-0.4,2.2-0.2l7.1,4.2
		c0.5,0.4,0.5,0.9-0.2,1.3l-7.1,4C311.5,355.8,310.6,355.8,310.1,355.6z"/>
	<path class="st4" d="M321,361.8l-7.1-4.2c-0.5-0.4-0.5-0.9,0.2-1.3l7.1-4c0.7-0.4,1.6-0.4,2.2-0.2l7.1,4.2c0.5,0.4,0.5,0.9-0.2,1.3
		l-7,4.2C322.7,362.2,321.6,362.2,321,361.8z"/>
	<path class="st4" d="M332.2,368.2l-7.1-4.2c-0.5-0.4-0.5-0.9,0.2-1.3l7.1-4c0.7-0.4,1.6-0.4,2.2-0.2l7.1,4.2
		c0.5,0.4,0.5,0.9-0.2,1.3l-7.1,4C333.7,368.6,332.7,368.6,332.2,368.2z"/>
	<path class="st4" d="M343.2,374.6l-7.1-4.2c-0.5-0.4-0.5-0.9,0.2-1.3l7.1-4c0.7-0.4,1.6-0.4,2.2-0.2l7.1,4.2
		c0.5,0.4,0.5,0.9-0.2,1.3l-7.1,4C344.8,375,343.7,375,343.2,374.6z"/>
	<path class="st4" d="M354.3,381l-7.1-4.2c-0.5-0.4-0.5-0.9,0.2-1.3l7.1-4c0.7-0.4,1.6-0.4,2.2-0.2l7.1,4.2c0.5,0.4,0.5,0.9-0.2,1.3
		l-7.1,4C355.8,381.4,354.9,381.4,354.3,381z"/>
	<path class="st4" d="M365.3,387.4l-7.1-4.2c-0.5-0.4-0.5-0.9,0.2-1.3l7.1-4c0.7-0.4,1.6-0.4,2.2-0.2l7.1,4.2
		c0.5,0.4,0.5,0.9-0.2,1.3l-7.1,4C367,387.8,365.9,387.8,365.3,387.4z"/>
	<path class="st4" d="M259.9,314l-7.1-4.2c-0.5-0.4-0.5-0.9,0.2-1.3l7.1-4c0.7-0.4,1.6-0.4,2.2-0.2l7.1,4.2c0.5,0.4,0.5,0.9-0.2,1.3
		l-7.1,4C261.4,314.4,260.5,314.4,259.9,314z"/>
	<path class="st4" d="M248.9,307.8l-7.1-4.2c-0.5-0.4-0.5-0.9,0.2-1.3l7.1-4c0.7-0.4,1.6-0.4,2.2-0.2l7.1,4.2
		c0.5,0.4,0.5,0.9-0.2,1.3l-7.1,4C250.4,308,249.5,308,248.9,307.8z"/>
	<path class="st4" d="M237.8,301.4l-7.1-4.2c-0.5-0.4-0.5-0.9,0.2-1.3l7.1-4c0.7-0.4,1.6-0.4,2.2-0.2l7.1,4.2
		c0.5,0.4,0.5,0.9-0.2,1.3l-7.1,4C239.4,301.6,238.5,301.7,237.8,301.4z"/>
	<path class="st4" d="M226.8,295l-7.1-4.2c-0.5-0.4-0.5-0.9,0.2-1.3l7.1-4c0.7-0.4,1.6-0.4,2.2-0.2l7.1,4.2c0.5,0.4,0.5,0.9-0.2,1.3
		l-7.1,4C228.5,295.3,227.4,295.3,226.8,295z"/>
	<path class="st4" d="M238.1,288.4l-7.1-4.2c-0.5-0.4-0.5-0.9,0.2-1.3l2.4-1.3c0.7-0.4,1.6-0.4,2.2-0.2l7.1,4.2
		c0.5,0.4,0.5,0.9-0.2,1.3l-2.4,1.3C239.8,288.7,238.7,288.7,238.1,288.4z"/>
	<path class="st4" d="M252.6,296.8l-7.1-4.2c-0.5-0.4-0.5-0.9,0.2-1.3l2.4-1.3c0.7-0.4,1.6-0.4,2.2-0.2l7.1,4.2
		c0.5,0.4,0.5,0.9-0.2,1.3l-2.4,1.3C254.1,297,253.2,297.2,252.6,296.8z"/>
	<path class="st4" d="M263.6,303l-7.1-4.2c-0.5-0.4-0.5-0.9,0.2-1.3l2.4-1.3c0.7-0.4,1.6-0.4,2.2-0.2l7.1,4.2
		c0.5,0.4,0.5,0.9-0.2,1.3l-2.4,1.3C265,303.4,264.1,303.4,263.6,303z"/>
	<path class="st4" d="M274.6,309.4l-7.1-4.2c-0.5-0.4-0.5-0.9,0.2-1.3l2.4-1.3c0.7-0.4,1.6-0.4,2.2-0.2l7.1,4.2
		c0.5,0.4,0.5,0.9-0.2,1.3l-2.4,1.3C276,309.8,275.1,309.8,274.6,309.4z"/>
	<path class="st4" d="M285.5,315.8l-7.1-4.2c-0.5-0.4-0.5-0.9,0.2-1.3l2.4-1.3c0.7-0.4,1.6-0.4,2.2-0.2l7.1,4.2
		c0.5,0.4,0.5,0.9-0.2,1.3l-2.4,1.3C287,316,286.1,316,285.5,315.8z"/>
	<path class="st4" d="M346.7,351.2l-7.1-4.2c-0.5-0.4-0.5-0.9,0.2-1.3l2.4-1.3c0.7-0.4,1.6-0.4,2.2-0.2l7.1,4.2
		c0.5,0.4,0.5,0.9-0.2,1.3l-2.4,1.3C348.3,351.4,347.2,351.5,346.7,351.2z"/>
	<path class="st4" d="M357.6,357.4l-7.1-4.2c-0.5-0.4-0.5-0.9,0.2-1.3l2.4-1.3c0.7-0.4,1.6-0.4,2.2-0.2l7.1,4.2
		c0.5,0.4,0.5,0.9-0.2,1.3l-2.4,1.3C359.3,357.8,358.2,357.8,357.6,357.4z"/>
	<path class="st4" d="M368.6,363.8l-7.1-4.2c-0.5-0.4-0.5-0.9,0.2-1.3l2.4-1.3c0.7-0.4,1.6-0.4,2.2-0.2l7.1,4.2
		c0.5,0.4,0.5,0.9-0.2,1.3l-2.4,1.3C370.3,364.2,369.2,364.2,368.6,363.8z"/>
	<path class="st4" d="M379.6,370.2l-7.1-4.2c-0.5-0.4-0.5-0.9,0.2-1.3l2.4-1.3c0.7-0.4,1.6-0.4,2.2-0.2l7.1,4.2
		c0.5,0.4,0.5,0.9-0.2,1.3l-2.4,1.3C381.2,370.4,380.1,370.4,379.6,370.2z"/>
	<path class="st4" d="M270.9,320.4l-7.1-4.2c-0.5-0.4-0.5-0.9,0.2-1.3l7.1-4c0.7-0.4,1.6-0.4,2.2-0.2l7.1,4.2
		c0.5,0.4,0.5,0.9-0.2,1.3l-7.1,4C272.5,320.8,271.5,320.8,270.9,320.4z"/>
	<path class="st4" d="M282.1,326.8l-7.1-4.2c-0.5-0.4-0.5-0.9,0.2-1.3l7.1-4c0.7-0.4,1.6-0.4,2.2-0.2l7.1,4.2
		c0.5,0.4,0.5,0.9-0.2,1.3l-7.1,4C283.5,327.2,282.6,327.2,282.1,326.8z"/>
	<path class="st4" d="M293,333.2l-7.1-4.2c-0.5-0.4-0.5-0.9,0.2-1.3l7.1-4c0.7-0.4,1.6-0.4,2.2-0.2l7.1,4.2c0.5,0.4,0.5,0.9-0.2,1.3
		l-7.1,4C294.7,333.6,293.6,333.6,293,333.2z"/>
	<path class="st4" d="M304.2,339.6l-7.1-4.2c-0.5-0.4-0.5-0.9,0.2-1.3l7.1-4c0.7-0.4,1.6-0.4,2.2-0.2l7.1,4.2
		c0.5,0.4,0.5,0.9-0.2,1.3l-7.1,4C305.9,340,304.8,340,304.2,339.6z"/>
	<path class="st4" d="M315.2,346.1l-7.1-4.2c-0.5-0.4-0.5-0.9,0.2-1.3l7.1-4c0.7-0.4,1.6-0.4,2.2-0.2l7.1,4.2
		c0.5,0.4,0.5,0.9-0.2,1.3l-7.1,4C316.8,346.4,315.9,346.4,315.2,346.1z"/>
	<path class="st4" d="M326.3,352.5l-7.1-4.2c-0.5-0.4-0.5-0.9,0.2-1.3l7.1-4c0.7-0.4,1.6-0.4,2.2-0.2l7.1,4.2
		c0.5,0.4,0.5,0.9-0.2,1.3l-7.1,4C328,352.8,326.9,352.8,326.3,352.5z"/>
	<path class="st4" d="M337.3,358.9l-7.1-4.2c-0.5-0.4-0.5-0.9,0.2-1.3l7.1-4c0.7-0.4,1.6-0.4,2.2-0.2l7.1,4.2
		c0.5,0.4,0.5,0.9-0.2,1.3l-7.1,4C339,359.2,338.1,359.2,337.3,358.9z"/>
	<path class="st4" d="M348.5,365.3l-7.1-4.2c-0.5-0.4-0.5-0.9,0.2-1.3l7.1-4c0.7-0.4,1.6-0.4,2.2-0.2l7.1,4.2
		c0.5,0.4,0.5,0.9-0.2,1.3l-7.1,4C350.1,365.5,349,365.6,348.5,365.3z"/>
	<path class="st4" d="M359.5,371.7l-7.1-4.2c-0.5-0.4-0.5-0.9,0.2-1.3l7.1-4c0.7-0.4,1.6-0.4,2.2-0.2l7.1,4.2
		c0.5,0.4,0.5,0.9-0.2,1.3l-7.1,4C361.1,371.9,360.2,372.1,359.5,371.7z"/>
	<path class="st4" d="M207.6,321.3l-21-12.3c-0.5-0.4-0.5-0.9,0.2-1.3l7.1-4c0.7-0.4,1.6-0.4,2.2-0.2l21,12.3
		c0.5,0.4,0.5,0.9-0.2,1.3l-7.1,4C209.2,321.5,208.3,321.5,207.6,321.3z"/>
	<path class="st4" d="M343.7,399.9l-21-12.3c-0.5-0.4-0.5-0.9,0.2-1.3l7.1-4c0.7-0.4,1.6-0.4,2.2-0.2l21,12.3
		c0.5,0.4,0.5,0.9-0.2,1.3l-7.1,4C345.2,400.1,344.3,400.3,343.7,399.9z"/>
	<path class="st4" d="M299.4,388.4l-7.1-4.2c-0.5-0.4-0.5-0.9,0.2-1.3l8.4-4.9c0.7-0.4,1.6-0.4,2.2-0.2l7.1,4.2
		c0.5,0.4,0.5,0.9-0.2,1.3l-8.4,4.9C300.9,388.7,300,388.7,299.4,388.4z"/>
	<path class="st4" d="M218.9,342l-11.5-6.6c-0.5-0.4-0.5-0.9,0.2-1.3l8.4-4.9c0.7-0.4,1.6-0.4,2.2-0.2l11.5,6.6
		c0.5,0.4,0.5,0.9-0.2,1.3l-8.4,4.9C220.6,342.2,219.5,342.2,218.9,342z"/>
	<path class="st4" d="M288.6,382.3l-11.5-6.6c-0.5-0.4-0.5-0.9,0.2-1.3l8.4-4.9c0.7-0.4,1.6-0.4,2.2-0.2l11.5,6.6
		c0.5,0.4,0.5,0.9-0.2,1.3l-8.4,4.9C290.3,382.5,289.4,382.5,288.6,382.3z"/>
	<path class="st4" d="M235,351.2l-11.5-6.6c-0.5-0.4-0.5-0.9,0.2-1.3l8.4-4.9c0.7-0.4,1.6-0.4,2.2-0.2l11.5,6.6
		c0.5,0.4,0.5,0.9-0.2,1.3l-8.4,4.9C236.5,351.5,235.6,351.5,235,351.2z"/>
	<path class="st4" d="M245,344.2l39.6,23c0.6,0.4,0.6,0.9,0,1.3l-8.7,5c-0.6,0.4-1.7,0.4-2.2,0L223,344.2H245z"/>
	<path class="st4" d="M330.4,400.1l8,4.6c0.5,0.2,0.4,0.7-0.2,1.1l-3.5,2c-0.5,0.4-1.3,0.4-1.8,0l-8-4.6c-0.5-0.2-0.4-0.7,0.2-1.1
		l3.5-2C329.1,399.7,329.8,399.7,330.4,400.1z"/>
	<path class="st4" d="M319.2,393.5l8.1,4.6c0.5,0.2,0.4,0.7-0.2,1.1l-3.5,2c-0.5,0.4-1.3,0.4-1.8,0l-8.1-4.6
		c-0.5-0.2-0.4-0.7,0.2-1.1l3.5-2C317.9,393.3,318.7,393.3,319.2,393.5z"/>
	<path class="st4" d="M308,387.1l8.1,4.6c0.5,0.2,0.4,0.7-0.2,1.1l-3.5,2c-0.5,0.4-1.3,0.4-1.8,0l-8.1-4.6c-0.5-0.2-0.4-0.7,0.2-1.1
		l3.5-2C306.8,386.9,307.7,386.9,308,387.1z"/>
	<path class="st4" d="M325.2,390l8.1,4.6c0.5,0.2,0.4,0.7-0.2,1.1l-3.5,2c-0.5,0.4-1.3,0.4-1.8,0l-8.1-4.6c-0.5-0.2-0.4-0.7,0.2-1.1
		l3.5-2C324,389.8,324.9,389.8,325.2,390z"/>
</g>
<path class="st1" d="M438.3,217.7c-0.5,0-1.1-0.2-1.6-0.5c-1.6-0.9-2.7-3.1-2.4-4.9c0.2-0.9,0.7-1.5,1.5-1.8
	c0.7-0.4,1.8-0.2,2.7,0.4c1.6,0.9,2.7,3.1,2.4,4.9c-0.2,0.9-0.7,1.5-1.5,1.8C438.9,217.5,438.7,217.7,438.3,217.7z M436.7,210.9
	c-0.2,0-0.5,0-0.7,0.2c-0.5,0.2-0.9,0.7-0.9,1.3c-0.4,1.5,0.5,3.3,2,4c0.7,0.4,1.5,0.5,2,0.2c0.5-0.2,0.9-0.7,0.9-1.3
	c0.4-1.5-0.5-3.3-2-4C437.4,211.1,437,210.9,436.7,210.9z"/>
<path class="st1" d="M447.5,222.8c-0.5,0-1.1-0.2-1.6-0.6c-1.6-0.9-2.7-3.1-2.4-4.9c0.2-0.9,0.7-1.5,1.5-1.8
	c0.7-0.4,1.8-0.2,2.7,0.4c1.6,0.9,2.7,3.1,2.4,4.9c-0.2,0.9-0.7,1.5-1.5,1.8C448,222.8,447.7,222.8,447.5,222.8z M445.8,216.2
	c-0.2,0-0.5,0-0.7,0.2c-0.5,0.2-0.9,0.7-0.9,1.3c-0.4,1.5,0.5,3.3,2,4c0.7,0.4,1.5,0.5,2,0.2c0.5-0.2,0.9-0.7,0.9-1.3
	c0.4-1.5-0.5-3.3-2-4C446.6,216.4,446.2,216.2,445.8,216.2z"/>
<path class="st1" d="M458.4,226.1c-0.4,1.6-2,2.2-3.5,1.3c-1.6-0.9-2.6-2.9-2.2-4.6c0.4-1.6,2-2.2,3.5-1.3
	C457.9,222.4,458.8,224.5,458.4,226.1z"/>
<path class="st1" d="M283.5,125.2l-4.9-2.7l0.4-2.2l4.9,2.7L283.5,125.2z"/>
<path class="st1" d="M290.7,129.4l-4.9-2.9l0.4-2.2l4.9,2.7L290.7,129.4z"/>
<path class="st1" d="M276.4,121.2l-10.6-6.2l0.4-2.2l10.6,6.2L276.4,121.2z"/>
<path class="st17" d="M210.4,134.3c12.3-7.1,12.2-30.1,0-51.4s-32.2-32.8-44.4-25.7s-12.2,30.1,0,51.4S198.2,141.3,210.4,134.3z"/>
<path class="st1" d="M202.3,136.7c-4.4,0-9.1-1.5-14.3-4.4c-17.4-10.1-31.7-34.6-31.7-54.9c0-9.9,3.3-17.2,9.3-20.7
	c6-3.5,14.1-2.7,22.7,2.2C205.8,69,220,93.5,220,113.8c0,9.9-3.3,17.2-9.3,20.7C208.1,136.2,205.4,136.7,202.3,136.7z M174.1,55.4
	c-2.9,0-5.7,0.7-8.1,2c-5.9,3.3-9,10.4-9,20.1c0,20,14.1,44.3,31.3,54.2c8.2,4.8,16.1,5.5,21.8,2.2c5.9-3.3,9-10.4,9-20.1
	c0-20-14.1-44.3-31.3-54.2C183.1,56.9,178.3,55.4,174.1,55.4z"/>
<path class="st1" d="M184.7,146.6c-4.4,0-9.1-1.5-14.3-4.4c-17.4-10.1-31.7-34.6-31.7-54.9c0-9.9,3.3-17.2,9.3-20.7
	c6-3.5,14.1-2.7,22.7,2.2c17.4,10.1,31.7,34.6,31.7,54.9c0,9.9-3.3,17.2-9.3,20.7C190.6,146.1,187.8,146.6,184.7,146.6z M156.5,65.3
	c-2.9,0-5.7,0.7-8.1,2c-5.9,3.3-9,10.4-9,20c0,20,14.1,44.3,31.3,54.2c8.2,4.8,16.1,5.5,21.8,2.2c5.9-3.3,9-10.4,9-20.1
	c0-20-14.1-44.3-31.3-54.2C165.5,66.8,160.9,65.3,156.5,65.3z"/>
<path class="st1" d="M438,321.3l-16.8-9.3c-3.8-2.2-7.1-6.8-8.2-11.5l-14.6-60.2c-1.6-7.1-7.5-12.3-11.5-12.5h-0.2
	c-2,0-3.3,1.1-4,3.3l-4.4,13.6c-0.5,1.5-1.5,2.6-2.7,3.1c-1.6,0.5-3.5,0.4-5.5-0.9l-3.1-1.8c-3.5-2-6.8-6.4-7.9-11
	c-2-7-7.3-11.5-11.2-11.9c-0.2,0-0.4,0-0.4,0c-1.6,0-2.9,0.9-3.8,2.6l-4.8,10.3c-0.5,1.3-1.5,2-2.7,2.4c-1.5,0.6-3.3,0.2-5.3-0.9
	l-3.5-2c-3.8-2.2-7.1-7-8.2-11.7l-14.6-65c-1.6-7.1-7.3-12.5-11.5-12.6c-2-0.2-3.5,0.9-4.4,2.9l-23.6,64.6c-0.5,1.5-1.5,2.4-2.7,2.9
	c-1.5,0.5-3.5,0.2-5.5-0.9l-11.9-7l0.2-0.2l11.9,7c1.8,1.1,3.7,1.5,5.1,0.9c1.1-0.4,2-1.3,2.6-2.7l23.6-64.6c0.7-2,2.2-3.3,4.2-3.3
	c0.2,0,0.2,0,0.4,0c4.2,0.4,10.1,5.7,11.7,13l14.6,65c1.1,4.8,4.4,9.5,8.1,11.5l3.5,2c1.8,1.1,3.7,1.5,5.1,0.9
	c1.1-0.4,2-1.1,2.6-2.4l4.8-10.3c0.9-1.8,2.6-2.9,4.6-2.7c4,0.4,9.5,5.1,11.3,12.1c1.3,4.4,4.4,8.8,7.9,10.8l3.1,1.8
	c2,1.1,3.8,1.5,5.3,0.9c1.3-0.5,2-1.5,2.6-2.9l4.4-13.6c0.7-2.4,2.4-3.5,4.6-3.5c4.2,0.2,10.1,5.3,11.9,12.6l14.6,60.2
	c1.1,4.8,4.4,9.3,8.1,11.4l16.8,9.3L438,321.3z"/>
<path class="st1" d="M425.1,328.7l-16.8-9.3c-3.8-2.2-7.1-6.8-8.2-11.5l-14.6-60.2c-1.6-7.1-7.5-12.3-11.5-12.5
	c-2,0-3.5,1.1-4.2,3.3l-4.4,13.6c-0.5,1.5-1.5,2.6-2.7,3.1c-1.6,0.5-3.5,0.4-5.5-0.9l-3.1-1.8c-3.5-2-6.8-6.4-7.9-11
	c-2-7-7.3-11.5-11.2-11.9c-2-0.2-3.5,0.7-4.2,2.6l-4.8,10.3c-0.5,1.3-1.5,2-2.7,2.4c-1.5,0.5-3.3,0.2-5.3-0.9l-3.5-2
	c-3.8-2.2-7.1-7-8.2-11.7l-14.6-65c-1.6-7.1-7.3-12.5-11.5-12.6c-2-0.2-3.5,0.9-4.4,2.9l-23.6,64.6c-0.5,1.5-1.5,2.4-2.7,2.9
	c-1.5,0.5-3.5,0.2-5.5-0.9l-11.9-7l0.2-0.2l11.9,7c1.8,1.1,3.7,1.5,5.1,0.9c1.1-0.4,2-1.3,2.6-2.7l23.6-64.6
	c0.7-2.2,2.4-3.3,4.6-3.3c4.2,0.4,10.1,5.7,11.7,13l14.6,65c1.1,4.8,4.4,9.5,8.1,11.5l3.5,2c1.8,1.1,3.7,1.5,5.1,0.9
	c1.1-0.4,2-1.1,2.6-2.4l4.8-10.3c0.9-1.8,2.6-2.9,4.6-2.7c4,0.4,9.5,5.1,11.3,12.1c1.3,4.4,4.4,8.8,7.9,10.8l3.1,1.8
	c2,1.1,3.8,1.5,5.3,0.9c1.3-0.5,2-1.5,2.6-2.9l4.4-13.6c0.7-2.2,2.2-3.5,4.4-3.5h0.2c4.2,0.2,10.1,5.3,11.9,12.6l14.6,60.2
	c1.1,4.8,4.4,9.3,8.1,11.4l16.8,9.3L425.1,328.7z"/>
<path class="st1" d="M290.4,144.8l-12.9,7.4l0.4,0.6l12.9-7.4L290.4,144.8z"/>
<path class="st1" d="M344.9,222.2l-13,7.5l0.4,0.6l13-7.5L344.9,222.2z"/>
<path class="st1" d="M384.8,227.5l-13.6,7.8l0.4,0.6l13.6-7.8L384.8,227.5z"/>
<path class="st1" d="M437.8,321.5l-16.8-9.3c-3.8-2.2-7.1-6.8-8.4-11.7l-14.6-60.2c-1.6-7-7.3-12.1-11.3-12.3c-2,0-3.3,0.9-4,3.1
	l-4.2,13.6c-0.5,1.6-1.5,2.7-2.9,3.3c-1.6,0.5-3.7,0.4-5.7-0.9l-3.1-1.8c-3.7-2-6.8-6.4-8.1-11c-1.8-6.8-7.1-11.4-11-11.7
	c-1.8-0.2-3.3,0.7-4,2.4l-4.8,10.3c-0.5,1.3-1.6,2.2-2.9,2.6c-1.6,0.5-3.5,0.2-5.5-0.9l-3.5-2c-3.8-2.2-7.1-7-8.2-11.9l-14.6-65
	c-1.6-7.1-7.1-12.3-11.3-12.5c-2-0.2-3.3,0.9-4,2.9L265,212.9c-0.5,1.5-1.5,2.6-2.9,3.1c-1.6,0.5-3.7,0.2-5.7-0.9l-11.9-7l0.4-0.7
	l11.9,7c1.8,1.1,3.7,1.3,4.9,0.9c1.1-0.4,2-1.3,2.4-2.6l23.6-64.6c0.9-2.4,2.6-3.5,4.9-3.3c4.4,0.4,10.2,5.7,11.9,13.2l14.6,65
	c1.1,4.6,4.2,9.3,7.9,11.4l3.5,2c1.8,1.1,3.5,1.3,4.9,0.9c1.1-0.4,1.8-1.1,2.4-2.2l4.8-10.3c0.9-2,2.6-2.9,4.8-2.7
	c4,0.4,9.7,5.1,11.5,12.3c1.3,4.4,4.4,8.6,7.7,10.6l3.1,1.8c1.8,1.1,3.7,1.5,5.1,0.9c1.1-0.4,2-1.5,2.4-2.7l4.4-13.6
	c0.7-2.4,2.6-3.7,4.8-3.7c4.4,0.2,10.2,5.3,12.1,12.8l14.6,60.2c1.1,4.6,4.4,9.2,8.1,11.2l16.8,9.3L437.8,321.5z"/>
<path class="st1" d="M425,329l-16.8-9.3c-3.8-2.2-7.1-6.8-8.4-11.7l-14.6-60.2c-1.6-7-7.3-12.1-11.3-12.3c-2,0-3.3,0.9-4,3.1
	l-4.2,13.4c-0.5,1.6-1.5,2.7-2.9,3.3c-1.6,0.5-3.7,0.4-5.7-0.9l-3.1-1.8c-3.7-2-6.8-6.4-8.1-11c-1.8-6.8-7.1-11.4-11-11.7
	c-1.8-0.2-3.3,0.7-4,2.4l-4.8,10.3c-0.5,1.3-1.6,2.2-2.9,2.6c-1.6,0.5-3.5,0.2-5.5-0.9l-3.5-2c-3.8-2.2-7.1-7-8.2-11.9l-14.6-65
	c-1.6-7.1-7.1-12.3-11.3-12.5c-2-0.2-3.3,0.9-4,2.9l-23.6,64.6c-0.5,1.5-1.5,2.6-2.9,3.1c-1.6,0.5-3.7,0.2-5.7-0.9l-11.9-7l0.4-0.7
	l11.9,7c1.8,1.1,3.7,1.3,4.9,0.9c1.1-0.4,2-1.3,2.4-2.6l23.6-64.6c0.9-2.4,2.6-3.5,4.9-3.3c4.4,0.4,10.2,5.7,11.9,13.2l14.6,65
	c1.1,4.6,4.2,9.3,7.9,11.4l3.5,2c1.8,1.1,3.5,1.3,4.9,0.9c1.1-0.4,1.8-1.1,2.4-2.2l4.8-10.3c0.9-2,2.6-2.9,4.8-2.7
	c4,0.4,9.7,5.1,11.5,12.3c1.3,4.4,4.4,8.6,7.7,10.6l3.1,1.8c1.8,1.1,3.7,1.5,5.1,0.9c1.1-0.4,2-1.5,2.4-2.7l4.4-13.6
	c0.7-2.4,2.4-3.7,4.6-3.7h0.2c4.4,0.2,10.2,5.3,12.1,12.8l14.6,60.2c1.1,4.6,4.4,9.2,8.1,11.2l16.8,9.3L425,329z"/>
<linearGradient id="SVGID_8_" gradientUnits="userSpaceOnUse" x1="276.5222" y1="251.6894" x2="511.1352" y2="111.8814" gradientTransform="matrix(1 0 0 -1 0 431.7229)">
	<stop  offset="0" style="stop-color:#FF6400"/>
	<stop  offset="0.1042" style="stop-color:#CD5109"/>
	<stop  offset="0.2344" style="stop-color:#823B13"/>
	<stop  offset="0.5677" style="stop-color:#1E1E20"/>
	<stop  offset="0.7105" style="stop-color:#1E1E20"/>
	<stop  offset="0.8458" style="stop-color:#1E1E20"/>
	<stop  offset="1" style="stop-color:#1E1E20"/>
</linearGradient>
<path class="st18" d="M244.9,207.4l11.9,7c3.7,2,6.8,1.3,8.1-2l23.8-64.6c2.7-7.3,13.7-0.7,16.1,9.7l14.6,65
	c1.1,4.8,4.4,9.5,8.1,11.7l3.5,2c3.3,2,6.4,1.5,7.7-1.5l4.8-10.3c2.9-6.4,13-0.4,15.7,9.3c1.3,4.6,4.4,8.8,7.9,10.8l3.1,1.8
	c3.7,2.2,7,1.3,8-2.2l4.4-13.6c2.6-7.7,13.5-1.3,16.1,9.2l14.6,60.2c1.1,4.8,4.4,9.3,8.2,11.5l16.8,9.3L244.9,207.4z"/>
<linearGradient id="SVGID_9_" gradientUnits="userSpaceOnUse" x1="232.295" y1="191.7913" x2="425.3" y2="191.7913" gradientTransform="matrix(1 0 0 -1 0 431.7229)">
	<stop  offset="0" style="stop-color:#FF6400"/>
	<stop  offset="0.1055" style="stop-color:#CD5109"/>
	<stop  offset="0.2197" style="stop-color:#9E4011"/>
	<stop  offset="0.338" style="stop-color:#1E1E20"/>
	<stop  offset="0.4587" style="stop-color:#1E1E20"/>
	<stop  offset="0.8458" style="stop-color:#1E1E20"/>
	<stop  offset="1" style="stop-color:#1E1E20"/>
</linearGradient>
<path class="st19" d="M232.3,214.6l11.9,7c3.7,2,6.8,1.3,8.1-2l23.6-64.6c2.7-7.3,13.7-0.7,16.1,9.7l14.6,65
	c1.1,4.8,4.4,9.5,8.1,11.7l3.5,2c3.3,2,6.4,1.5,7.7-1.5l4.8-10.3c2.9-6.4,13-0.4,15.7,9.3c1.3,4.6,4.4,8.8,7.9,10.8l3.1,1.8
	c3.7,2.2,7,1.3,8-2.2l4.4-13.6c2.6-7.7,13.5-1.3,16.1,9.2l14.6,60.2c1.1,4.8,4.4,9.3,8.2,11.5l16.8,9.3L232.3,214.6z"/>
<path class="st1" d="M383.3,478.9l-0.4,0.6l40.2,22.6l0.4-0.6L383.3,478.9z"/>
<path class="st1" d="M448,571.3c-1.8,0-3.8-0.5-5.5-1.5l-64-37c-1.1-0.5-1.6-1.6-1.6-2.7s0.5-2.2,1.6-2.7l94.8-54.8
	c3.3-2,7.5-2,11,0l64,37c1.1,0.5,1.6,1.6,1.6,2.7s-0.5,2.2-1.6,2.7l-94.8,54.8C451.9,570.7,449.8,571.3,448,571.3z M478.8,471.9
	c-1.8,0-3.5,0.4-5.1,1.3l-94.8,54.8c-0.7,0.4-1.3,1.3-1.3,2.2s0.5,1.6,1.3,2.2l64,37c3.1,1.8,7,1.8,10.2,0l94.8-54.8
	c0.7-0.4,1.3-1.3,1.3-2.2s-0.5-1.6-1.3-2.2l-64-37C482.2,472.2,480.4,471.9,478.8,471.9z"/>
<path class="st1" d="M463.4,509l-10.1-5.9l2.6-1.3l10.1,5.7L463.4,509z"/>
<path class="st20" d="M472,514l-5.1-2.9l2.6-1.5l5.1,2.9L472,514z"/>
<path class="st20" d="M457.5,512.5l-10.1-5.9l2.6-1.5l10.1,5.9L457.5,512.5z"/>
<path class="st20" d="M466.1,517.5l-5.1-2.9l2.6-1.5l5.1,2.9L466.1,517.5z"/>
<path class="st1" d="M451.7,515.8l-10.1-5.9l2.6-1.5l10.1,5.9L451.7,515.8z"/>
<path class="st1" d="M460.3,520.8l-5.1-2.9l2.6-1.5l5.1,2.9L460.3,520.8z"/>
<path class="st1" d="M445.8,519.3l-10.1-5.9l2.6-1.5l10.1,5.9L445.8,519.3z"/>
<path class="st1" d="M454.4,524.2l-5.1-2.9l2.6-1.5l5.1,2.9L454.4,524.2z"/>
<path class="st1" d="M440,522.6l-10.1-5.9l2.6-1.5l10.1,5.9L440,522.6z"/>
<path class="st1" d="M448.6,527.5l-5.1-2.9l2.6-1.5l5.1,2.9L448.6,527.5z"/>
<path class="st1" d="M434.1,525.9l-10.1-5.7l2.6-1.5l10.1,5.9L434.1,525.9z"/>
<path class="st1" d="M442.7,531l-5.1-2.9l2.6-1.5l5.1,2.9L442.7,531z"/>
<path class="st1" d="M428.3,529.4l-10.1-5.9l2.6-1.5l10.1,5.9L428.3,529.4z"/>
<path class="st20" d="M436.9,534.3l-5.1-2.9l2.6-1.5l5.1,2.9L436.9,534.3z"/>
<path class="st1" d="M422.4,532.7l-10.1-5.7l2.6-1.5l10.1,5.9L422.4,532.7z"/>
<path class="st20" d="M431,537.8l-5.1-2.9l2.6-1.5l5.1,2.9L431,537.8z"/>
<path class="st1" d="M485.7,522l-10.1-5.7l2.6-1.5l10.1,5.7L485.7,522z"/>
<path class="st1" d="M494.3,527l-5.1-2.9l2.6-1.3l5.1,2.7L494.3,527z"/>
<path class="st1" d="M479.9,525.5l-10.1-5.9l2.6-1.5l10.1,5.9L479.9,525.5z"/>
<path class="st1" d="M488.5,530.5l-5.1-2.9l2.6-1.5l5.1,2.9L488.5,530.5z"/>
<path class="st1" d="M474,528.8l-10.1-5.9l2.6-1.3l10.1,5.7L474,528.8z"/>
<path class="st1" d="M482.6,533.8l-5.1-2.9l2.6-1.3l5.1,2.7L482.6,533.8z"/>
<path class="st1" d="M481,499l-10.1-5.9l2.4-1.5l10.1,5.9L481,499z"/>
<path class="st1" d="M489.4,503.9l-4.9-2.9l2.6-1.5l4.9,2.9L489.4,503.9z"/>
<path class="st1" d="M475.1,502.3l-10.1-5.7l2.4-1.5l10.1,5.9L475.1,502.3z"/>
<path class="st1" d="M483.5,507.4l-4.9-2.9l2.6-1.5l4.9,2.9L483.5,507.4z"/>
<path class="st1" d="M469.2,505.7l-10.1-5.9l2.4-1.5l10.1,5.9L469.2,505.7z"/>
<path class="st1" d="M477.7,510.7l-4.9-2.9l2.6-1.5l4.9,2.9L477.7,510.7z"/>
<path class="st1" d="M503.3,512l-10.1-5.9l2.4-1.3l10.1,5.7L503.3,512z"/>
<path class="st1" d="M511.7,516.9l-4.9-2.9l2.6-1.5l4.9,2.9L511.7,516.9z"/>
<path class="st20" d="M497.4,515.4l-10.1-5.9l2.4-1.5l10.1,5.9L497.4,515.4z"/>
<path class="st1" d="M505.8,520.4l-4.9-2.9l2.6-1.5l4.9,2.9L505.8,520.4z"/>
<path class="st1" d="M491.6,518.7l-10.1-5.9l2.4-1.5l10.1,5.9L491.6,518.7z"/>
<path class="st1" d="M500,523.7l-4.9-2.9l2.6-1.5l4.9,2.9L500,523.7z"/>
<path class="st1" d="M468.1,532.3l-10.1-5.9l2.6-1.5l10.1,5.9L468.1,532.3z"/>
<path class="st1" d="M476.7,537.2l-5.1-2.9l2.6-1.5l5.1,2.9L476.7,537.2z"/>
<path class="st20" d="M462.3,535.6l-10.1-5.9l2.6-1.3l10.1,5.7L462.3,535.6z"/>
<path class="st1" d="M470.9,540.5l-5.1-2.9l2.6-1.5l5.1,2.9L470.9,540.5z"/>
<path class="st1" d="M456.4,539.1l-10.1-5.9l2.6-1.5l10.1,5.9L456.4,539.1z"/>
<path class="st1" d="M465,544l-5.1-2.9l2.6-1.5l5.1,2.9L465,544z"/>
<path class="st1" d="M450.6,542.4l-10.1-5.9l2.6-1.5l10.1,5.9L450.6,542.4z"/>
<path class="st1" d="M459.2,547.3l-5.1-2.9l2.6-1.5l5.1,2.9L459.2,547.3z"/>
<path class="st1" d="M444.9,545.7l-10.1-5.7l2.4-1.5l10.1,5.7L444.9,545.7z"/>
<path class="st1" d="M453.3,550.6l-4.9-2.9l2.6-1.3l4.9,2.7L453.3,550.6z"/>
</svg>
