<svg width="140" height="140" viewBox="0 0 140 140" fill="none" xmlns="http://www.w3.org/2000/svg">
<circle r="70" transform="matrix(-1 0 0 1 70 70)" fill="white"/>
<path d="M105.242 66.8499C103.856 49.1765 88.9545 34.6219 71.2811 33.9288C50.8353 33.2357 34.2015 49.523 34.2015 69.6222C34.2015 87.2956 47.3699 102.197 64.3503 104.623C68.1622 105.316 71.6276 105.316 75.4395 104.623C93.4595 101.85 106.628 85.9095 105.242 66.8499ZM69.5484 83.1372C69.5484 83.1372 63.6572 83.4837 58.4592 78.2857C52.9146 72.3945 48.063 60.9588 48.063 60.9588C48.063 60.9588 47.7165 60.2657 48.063 59.9191C48.4096 59.2261 49.1026 59.2261 49.1026 59.2261H55.3403C55.3403 59.2261 56.0334 59.2261 56.3799 59.5726C56.7265 59.9191 57.073 60.2657 57.073 60.2657C57.073 60.2657 58.1126 62.6915 59.4988 65.1172C62.2711 69.6222 63.3107 70.6618 64.3503 70.3153C65.7365 69.6222 65.3899 63.7311 65.3899 63.7311C65.3899 63.7311 65.3899 61.6518 64.6968 60.6122C64.0038 59.9191 62.9642 59.9191 62.6176 59.9191C62.2711 59.9191 62.9642 58.8795 63.6572 58.8795C64.6968 58.1865 66.7761 58.1865 69.2018 58.1865C70.9345 58.1865 71.6276 58.1865 72.3207 58.533C74.3999 59.2261 73.7068 60.9588 73.7068 65.8103C73.7068 67.543 73.3603 69.6222 74.3999 70.3153C74.7464 70.6618 76.1326 70.3153 78.9049 65.4638C80.2911 63.038 81.3307 60.2657 81.3307 60.2657C81.3307 60.2657 81.6772 59.9191 82.0237 59.5726C82.3703 59.2261 83.0634 59.2261 83.0634 59.2261H89.6476C89.6476 59.2261 91.7268 58.8795 92.0733 59.9191C92.4199 60.9588 91.3803 63.038 88.608 66.8499C84.103 72.7411 83.7564 72.048 87.2218 75.5134C90.6872 78.6322 91.3803 80.3649 91.7268 80.7114C93.113 83.1372 89.9941 83.4837 89.9941 83.4837H84.103C84.103 83.4837 82.7168 83.8303 80.9841 82.4441C78.9049 81.058 76.8257 76.8995 75.093 77.5926C73.3603 77.9391 73.3603 81.4045 73.3603 81.751C73.3603 81.751 73.3603 82.4441 73.0138 82.7907C72.6672 83.1372 71.6276 83.4837 71.6276 83.4837L69.5484 83.1372Z" fill="#6383A8"/>
</svg>
